<svg width="40" height="40" viewBox="0 0 40 40" fill="none" xmlns="http://www.w3.org/2000/svg">
<rect width="40" height="40" rx="20" fill="#168295" fill-opacity="0.5"/>
<path d="M16 20H16.01M20 20H20.01M23.99 20H24M12 20C12 15.5817 15.5817 12 20 12C24.4183 12 28 15.5817 28 20C28 21.1989 27.7363 22.3362 27.2637 23.357L28.3848 27.0005C28.6319 27.8038 27.838 28.5352 27.0576 28.223L24.3597 27.1439C24.1283 27.0513 23.8706 27.0485 23.6372 27.136L23.5698 27.1613C23.0786 27.4067 22.5585 27.603 22.0161 27.7438C21.9469 27.7685 21.8779 27.7851 21.8097 27.7945C21.2282 27.9289 20.6224 28 20 28C15.5817 28 12 24.4183 12 20Z" stroke="white" stroke-width="1.5" stroke-linecap="round" stroke-linejoin="round"/>
</svg>
