<svg width="297" height="175" viewBox="0 0 297 175" fill="none" xmlns="http://www.w3.org/2000/svg">
<g clip-path="url(#clip0_2890_9265)">
<g opacity="0.16" clip-path="url(#clip1_2890_9265)">
<path d="M362.022 10.3955L378 -16.7758V175H-181.243V22.2829L-165.264 -0.0363159L-149.286 57.7511L-133.308 50.3276L-117.329 93.6075L-101.351 76.6255L-85.3726 127.814L-69.3942 99.7696L-53.4158 150.764L-37.4375 106.611L-21.4591 121.895L-5.48074 35.8686L10.4976 22.6226L26.476 52.8506L42.4543 63.0398L58.4327 8.69731L74.4111 35.8686L90.3894 48.969L106.368 27.3776L122.346 93.6075L138.325 73.2291L154.303 122.477L170.281 49.4542L186.26 103.797L202.238 146.252L218.216 64.7381L234.195 80.0219L250.173 29.0758L266.151 49.4542L282.13 3.6027L298.108 73.2291L314.087 110.59L330.065 32.4722L346.043 52.8506L362.022 10.3955Z" fill="#168295"/>
</g>
<g clip-path="url(#clip2_2890_9265)">
<path d="M378 -16.7758L362.022 10.3974L346.043 52.8554L330.065 32.4755L314.087 110.598L298.108 73.2352L282.13 3.60408L266.151 49.4587L250.173 29.0789L234.195 80.0285L218.216 64.7436L202.238 146.263L186.26 103.805L170.281 49.4587L154.303 122.486L138.325 73.2352L122.346 93.6151L106.368 27.3806L90.3894 48.9735L74.4111 35.8722L58.4327 8.69904L42.4544 63.0453L26.476 52.8554L10.4976 22.6253L-5.48074 35.8722L-21.4591 121.904L-37.4375 106.619L-53.4158 150.776L-69.3942 99.7775L-85.3726 127.824L-101.351 76.6318L-117.329 93.6151L-133.308 50.3322L-149.286 57.7562L-165.264 -0.0351737L-181.243 22.2856" stroke="#168295" stroke-width="0.665765"/>
</g>
<rect x="250" y="20" width="8" height="8" rx="1" transform="rotate(45 250 20)" fill="#043740"/>
<rect x="230" y="3" width="40" height="23" rx="3" fill="#043740"/>
<path d="M239.663 19.3125V18.4245H242.003V11.6805H241.919L239.807 13.6485L239.219 13.0125L241.439 10.9365H243.011V18.4245H245.171V19.3125H239.663ZM252.598 14.0085C252.598 14.6325 252.506 15.2205 252.322 15.7725C252.138 16.3165 251.898 16.8165 251.602 17.2725C251.314 17.7205 250.994 18.1205 250.642 18.4725C250.29 18.8165 249.946 19.0965 249.61 19.3125H248.314C248.762 18.9845 249.162 18.6645 249.514 18.3525C249.866 18.0405 250.174 17.7165 250.438 17.3805C250.702 17.0365 250.926 16.6725 251.11 16.2885C251.294 15.8965 251.442 15.4565 251.554 14.9685L251.494 14.9445C251.294 15.2885 251.034 15.5765 250.714 15.8085C250.402 16.0325 249.99 16.1445 249.478 16.1445C249.118 16.1445 248.786 16.0845 248.482 15.9645C248.178 15.8445 247.918 15.6725 247.702 15.4485C247.486 15.2245 247.314 14.9565 247.186 14.6445C247.066 14.3245 247.006 13.9645 247.006 13.5645C247.006 13.1565 247.07 12.7845 247.198 12.4485C247.334 12.1045 247.522 11.8125 247.762 11.5725C248.01 11.3245 248.302 11.1325 248.638 10.9965C248.982 10.8605 249.366 10.7925 249.79 10.7925C250.222 10.7925 250.61 10.8685 250.954 11.0205C251.306 11.1645 251.602 11.3765 251.842 11.6565C252.09 11.9285 252.278 12.2645 252.406 12.6645C252.534 13.0645 252.598 13.5125 252.598 14.0085ZM249.802 15.2925C250.354 15.2925 250.782 15.1405 251.086 14.8365C251.398 14.5325 251.554 14.0965 251.554 13.5285V13.4325C251.554 12.8645 251.398 12.4285 251.086 12.1245C250.782 11.8205 250.354 11.6685 249.802 11.6685C249.25 11.6685 248.818 11.8205 248.506 12.1245C248.202 12.4285 248.05 12.8645 248.05 13.4325V13.5285C248.05 14.0965 248.202 14.5325 248.506 14.8365C248.818 15.1405 249.25 15.2925 249.802 15.2925ZM260.194 19.3125H254.698V18.2805L257.434 15.7605C257.826 15.4005 258.154 15.0205 258.418 14.6205C258.682 14.2125 258.814 13.8045 258.814 13.3965V13.2525C258.814 12.7885 258.686 12.4125 258.43 12.1245C258.174 11.8365 257.786 11.6925 257.266 11.6925C257.01 11.6925 256.786 11.7285 256.594 11.8005C256.402 11.8725 256.234 11.9725 256.09 12.1005C255.954 12.2285 255.838 12.3805 255.742 12.5565C255.654 12.7245 255.582 12.9085 255.526 13.1085L254.626 12.7605C254.706 12.5125 254.814 12.2725 254.95 12.0405C255.094 11.8005 255.27 11.5885 255.478 11.4045C255.694 11.2205 255.95 11.0725 256.246 10.9605C256.55 10.8485 256.906 10.7925 257.314 10.7925C257.722 10.7925 258.086 10.8525 258.406 10.9725C258.726 11.0925 258.994 11.2605 259.21 11.4765C259.426 11.6925 259.59 11.9485 259.702 12.2445C259.822 12.5405 259.882 12.8685 259.882 13.2285C259.882 13.5565 259.834 13.8605 259.738 14.1405C259.65 14.4205 259.526 14.6885 259.366 14.9445C259.206 15.1925 259.01 15.4365 258.778 15.6765C258.554 15.9165 258.31 16.1565 258.046 16.3965L255.79 18.4245H260.194V19.3125Z" fill="white"/>
<rect x="0.332883" y="-0.332883" width="5.99189" height="5.99189" rx="2.99594" transform="matrix(-1 0 0 1 285.449 0.112305)" fill="#168295" stroke="white" stroke-width="0.665765"/>
<rect x="0.332883" y="-0.332883" width="5.99189" height="5.99189" rx="2.99594" transform="matrix(-1 0 0 1 269.47 46.6865)" fill="#168295" stroke="white" stroke-width="0.665765"/>
<rect x="0.332883" y="-0.332883" width="5.99189" height="5.99189" rx="2.99594" transform="matrix(-1 0 0 1 253.492 26.4365)" fill="#168295" stroke="white" stroke-width="0.665765"/>
<rect x="0.332883" y="-0.332883" width="5.99189" height="5.99189" rx="2.99594" transform="matrix(-1 0 0 1 237.513 77.0615)" fill="#168295" stroke="white" stroke-width="0.665765"/>
<rect x="0.332883" y="-0.332883" width="5.99189" height="5.99189" rx="2.99594" transform="matrix(-1 0 0 1 301.427 70.3115)" fill="#168295" stroke="white" stroke-width="0.665765"/>
<rect x="0.332883" y="-0.332883" width="5.99189" height="5.99189" rx="2.99594" transform="matrix(-1 0 0 1 205.556 143.212)" fill="#168295" stroke="white" stroke-width="0.665765"/>
<rect x="0.332883" y="-0.332883" width="5.99189" height="5.99189" rx="2.99594" transform="matrix(-1 0 0 1 189.58 100.687)" fill="#168295" stroke="white" stroke-width="0.665765"/>
<rect x="0.332883" y="-0.332883" width="5.99189" height="5.99189" rx="2.99594" transform="matrix(-1 0 0 1 173.599 46.6865)" fill="#168295" stroke="white" stroke-width="0.665765"/>
<rect x="0.332883" y="-0.332883" width="5.99189" height="5.99189" rx="2.99594" transform="matrix(-1 0 0 1 157.623 119.587)" fill="#168295" stroke="white" stroke-width="0.665765"/>
<rect x="0.332883" y="-0.332883" width="5.99189" height="5.99189" rx="2.99594" transform="matrix(-1 0 0 1 125.623 91.3232)" fill="#168295" stroke="white" stroke-width="0.665765"/>
<rect x="0.332883" y="-0.332883" width="5.99189" height="5.99189" rx="2.99594" transform="matrix(-1 0 0 1 141.642 70.3115)" fill="#168295" stroke="white" stroke-width="0.665765"/>
<rect x="0.332883" y="-0.332883" width="5.99189" height="5.99189" rx="2.99594" transform="matrix(-1 0 0 1 221.535 62.2119)" fill="#168295" stroke="white" stroke-width="0.665765"/>
<rect x="0.332883" y="-0.332883" width="5.99189" height="5.99189" rx="2.99594" transform="matrix(-1 0 0 1 109.687 24.4111)" fill="#168295" stroke="white" stroke-width="0.665765"/>
<rect x="0.332883" y="-0.332883" width="5.99189" height="5.99189" rx="2.99594" transform="matrix(-1 0 0 1 93.7068 46.0127)" fill="#168295" stroke="white" stroke-width="0.665765"/>
<rect x="0.332883" y="-0.332883" width="5.99189" height="5.99189" rx="2.99594" transform="matrix(-1 0 0 1 45.7087 60.1416)" fill="#168295" stroke="white" stroke-width="0.665765"/>
<rect x="0.332883" y="-0.332883" width="5.99189" height="5.99189" rx="2.99594" transform="matrix(-1 0 0 1 77.7302 32.5127)" fill="#168295" stroke="white" stroke-width="0.665765"/>
<rect x="0.332883" y="-0.332883" width="5.99189" height="5.99189" rx="2.99594" transform="matrix(-1 0 0 1 61.7517 5.5127)" fill="#168295" stroke="white" stroke-width="0.665765"/>
<rect x="0.332883" y="-0.332883" width="5.99189" height="5.99189" rx="2.99594" transform="matrix(-1 0 0 1 29.7947 49.3877)" fill="#168295" stroke="white" stroke-width="0.665765"/>
<rect x="0.332883" y="-0.332883" width="5.99189" height="5.99189" rx="2.99594" transform="matrix(-1 0 0 1 13.8162 19.6865)" fill="#168295" stroke="white" stroke-width="0.665765"/>
</g>
<defs>
<clipPath id="clip0_2890_9265">
<path d="M0 0H297V159C297 167.837 289.837 175 281 175H16C7.16344 175 0 167.837 0 159V0Z" fill="white"/>
</clipPath>
<clipPath id="clip1_2890_9265">
<rect width="516" height="191.776" fill="white" transform="matrix(-1 0 0 1 378 -16.7758)"/>
</clipPath>
<clipPath id="clip2_2890_9265">
<rect width="516" height="167.551" fill="white" transform="matrix(-1 0 0 1 378 -16.7758)"/>
</clipPath>
</defs>
</svg>
