<svg width="24" height="24" viewBox="0 0 24 24" fill="none" xmlns="http://www.w3.org/2000/svg">
<g opacity="0.5">
<path d="M21.1308 11.3581L3.61479 2.1081C3.32479 1.9561 2.97479 2.0061 2.74179 2.2341C2.51179 2.4601 2.44879 2.8111 2.59179 3.1021L6.95379 12.0221L2.59179 20.9421C2.44879 21.2341 2.51179 21.5851 2.74179 21.8101C2.88679 21.9501 3.07479 22.0221 3.26479 22.0221C3.38479 22.0221 3.50479 21.9941 3.61479 21.9351L21.1318 12.6851C21.3768 12.5551 21.5318 12.2991 21.5318 12.0211C21.5318 11.7431 21.3768 11.4891 21.1318 11.3591L21.1308 11.3581ZM4.94879 4.5101L17.7528 11.2721H8.25579L4.94879 4.5121V4.5101ZM8.25579 12.7701H17.7538L4.94879 19.5351L8.25579 12.7721V12.7701Z" fill="#168295"/>
</g>
</svg>
