<svg width="24" height="24" viewBox="0 0 24 24" fill="none" xmlns="http://www.w3.org/2000/svg">
<path d="M19.0004 10.5V8.80005H14.6004V15.2H16.3004V13.2H18.3004V11.5H16.3004V10.5H19.0004ZM11.7004 8.80005H13.4004V15.2H11.7004V8.80005ZM8.10039 10.4C8.50039 10.4 9.00039 10.6 9.30039 10.9L10.5004 9.90005C9.90039 9.20005 9.00039 8.80005 8.10039 8.80005C6.30039 8.80005 4.90039 10.2 4.90039 12C4.90039 13.8 6.30039 15.2 8.10039 15.2C9.10039 15.2 9.90039 14.8 10.5004 14.1V11.6H7.70039V12.8H8.90039V13.4C8.70039 13.5 8.40039 13.6 8.10039 13.6C7.20039 13.6 6.50039 12.9 6.50039 12C6.50039 11.2 7.20039 10.4 8.10039 10.4Z" fill="#168295"/>
<path d="M20.5 2.02002H3.5C2.26 2.02002 1.25 3.02702 1.25 4.26702V19.774C1.25 21.012 2.26 22.02 3.5 22.02H20.5C21.74 22.02 22.75 21.012 22.75 19.774V4.26702C22.75 3.02702 21.74 2.02002 20.5 2.02002ZM21.25 19.774C21.25 20.184 20.914 20.52 20.5 20.52H3.5C3.086 20.52 2.75 20.184 2.75 19.774V4.26702C2.75 3.85502 3.086 3.52002 3.5 3.52002H20.5C20.914 3.52002 21.25 3.85502 21.25 4.26702V19.774Z" fill="#168295"/>
</svg>
