<svg width="41" height="40" viewBox="0 0 41 40" fill="none" xmlns="http://www.w3.org/2000/svg">
<rect x="0.5" width="40" height="40" rx="20" fill="#168295" fill-opacity="0.5"/>
<path d="M25.1446 21.0885C24.3256 20.268 22.9977 20.268 22.1787 21.0885L21.9203 21.3474C21.725 21.5431 21.4079 21.5431 21.2126 21.3474L18.6578 18.7878C18.463 18.5926 18.463 18.2765 18.6578 18.0814L18.9057 17.833C19.7246 17.0125 19.7246 15.6822 18.9057 14.8617L16.1645 12.1154C15.3455 11.2949 14.0176 11.2949 13.1986 12.1154L13.0174 12.2768C10.9787 14.369 10.9944 17.7212 13.0638 19.7945L20.1889 26.9329C22.2446 28.9924 25.5607 29.0223 27.6516 27.0205L27.8858 26.8061C28.7047 25.9856 28.7047 24.6553 27.8858 23.8348L25.1446 21.0885Z" stroke="white" stroke-width="1.5"/>
</svg>
