<svg width="772" height="392" viewBox="0 0 772 392" fill="none" xmlns="http://www.w3.org/2000/svg">
<path d="M0 0H772V367.999C772 381.254 761.255 391.999 748 391.999H24C10.7451 391.999 0 381.254 0 367.999V0Z" fill="white"/>
<path d="M22.2843 55.2849V64.4545H21.4471V56.1624H21.3933L19.2442 57.5907V56.7221L21.4112 55.2849H22.2843ZM27.9168 64.5798C27.2721 64.5798 26.7214 64.3948 26.2647 64.0246C25.811 63.6515 25.4617 63.1128 25.217 62.4083C24.9752 61.7039 24.8543 60.8577 24.8543 59.8697C24.8543 58.8847 24.9752 58.0414 25.217 57.34C25.4617 56.6355 25.8125 56.0968 26.2692 55.7237C26.7288 55.3476 27.278 55.1595 27.9168 55.1595C28.5556 55.1595 29.1033 55.3476 29.56 55.7237C30.0197 56.0968 30.3704 56.6355 30.6122 57.34C30.8569 58.0414 30.9793 58.8847 30.9793 59.8697C30.9793 60.8577 30.8569 61.7039 30.6122 62.4083C30.3704 63.1128 30.0212 63.6515 29.5645 64.0246C29.1108 64.3948 28.5615 64.5798 27.9168 64.5798ZM27.9168 63.8276C28.6242 63.8276 29.1764 63.4829 29.5734 62.7934C29.9704 62.1009 30.1689 61.1263 30.1689 59.8697C30.1689 59.0339 30.0779 58.3205 29.8958 57.7295C29.7167 57.1355 29.4585 56.6818 29.1212 56.3684C28.7869 56.055 28.3854 55.8983 27.9168 55.8983C27.2154 55.8983 26.6646 56.2475 26.2647 56.946C25.8647 57.6414 25.6647 58.616 25.6647 59.8697C25.6647 60.7054 25.7543 61.4188 25.9334 62.0098C26.1154 62.6008 26.3736 63.0516 26.7079 63.362C27.0452 63.6724 27.4482 63.8276 27.9168 63.8276ZM35.6492 64.5798C35.0044 64.5798 34.4537 64.3948 33.997 64.0246C33.5433 63.6515 33.1941 63.1128 32.9493 62.4083C32.7076 61.7039 32.5867 60.8577 32.5867 59.8697C32.5867 58.8847 32.7076 58.0414 32.9493 57.34C33.1941 56.6355 33.5448 56.0968 34.0015 55.7237C34.4612 55.3476 35.0104 55.1595 35.6492 55.1595C36.2879 55.1595 36.8357 55.3476 37.2924 55.7237C37.752 56.0968 38.1028 56.6355 38.3445 57.34C38.5893 58.0414 38.7117 58.8847 38.7117 59.8697C38.7117 60.8577 38.5893 61.7039 38.3445 62.4083C38.1028 63.1128 37.7535 63.6515 37.2968 64.0246C36.8431 64.3948 36.2939 64.5798 35.6492 64.5798ZM35.6492 63.8276C36.3566 63.8276 36.9088 63.4829 37.3058 62.7934C37.7028 62.1009 37.9013 61.1263 37.9013 59.8697C37.9013 59.0339 37.8102 58.3205 37.6282 57.7295C37.4491 57.1355 37.1909 56.6818 36.8536 56.3684C36.5193 56.055 36.1178 55.8983 35.6492 55.8983C34.9477 55.8983 34.397 56.2475 33.997 56.946C33.5971 57.6414 33.3971 58.616 33.3971 59.8697C33.3971 60.7054 33.4866 61.4188 33.6657 62.0098C33.8478 62.6008 34.106 63.0516 34.4403 63.362C34.7776 63.6724 35.1805 63.8276 35.6492 63.8276ZM41.5089 63.2008L41.4283 63.6799C41.3776 64.0023 41.3059 64.3575 41.2134 64.7455C41.1209 65.1335 41.0253 65.5022 40.9268 65.8514C40.8283 66.2006 40.7433 66.4812 40.6716 66.6931H40.0582C40.097 66.4902 40.1463 66.232 40.206 65.9186C40.2687 65.6051 40.3328 65.2574 40.3985 64.8753C40.4642 64.4963 40.5239 64.1052 40.5776 63.7023L40.6403 63.2008H41.5089ZM46.0534 64.5798C45.4087 64.5798 44.8579 64.3948 44.4013 64.0246C43.9476 63.6515 43.5983 63.1128 43.3536 62.4083C43.1118 61.7039 42.9909 60.8577 42.9909 59.8697C42.9909 58.8847 43.1118 58.0414 43.3536 57.34C43.5983 56.6355 43.949 56.0968 44.4057 55.7237C44.8654 55.3476 45.4146 55.1595 46.0534 55.1595C46.6922 55.1595 47.2399 55.3476 47.6966 55.7237C48.1562 56.0968 48.507 56.6355 48.7488 57.34C48.9935 58.0414 49.1159 58.8847 49.1159 59.8697C49.1159 60.8577 48.9935 61.7039 48.7488 62.4083C48.507 63.1128 48.1577 63.6515 47.7011 64.0246C47.2473 64.3948 46.6981 64.5798 46.0534 64.5798ZM46.0534 63.8276C46.7608 63.8276 47.313 63.4829 47.71 62.7934C48.107 62.1009 48.3055 61.1263 48.3055 59.8697C48.3055 59.0339 48.2145 58.3205 48.0324 57.7295C47.8533 57.1355 47.5951 56.6818 47.2578 56.3684C46.9235 56.055 46.522 55.8983 46.0534 55.8983C45.3519 55.8983 44.8012 56.2475 44.4013 56.946C44.0013 57.6414 43.8013 58.616 43.8013 59.8697C43.8013 60.7054 43.8908 61.4188 44.0699 62.0098C44.252 62.6008 44.5102 63.0516 44.8445 63.362C45.1818 63.6724 45.5848 63.8276 46.0534 63.8276ZM53.7858 64.5798C53.141 64.5798 52.5903 64.3948 52.1336 64.0246C51.6799 63.6515 51.3307 63.1128 51.0859 62.4083C50.8441 61.7039 50.7233 60.8577 50.7233 59.8697C50.7233 58.8847 50.8441 58.0414 51.0859 57.34C51.3307 56.6355 51.6814 56.0968 52.1381 55.7237C52.5978 55.3476 53.147 55.1595 53.7858 55.1595C54.4245 55.1595 54.9723 55.3476 55.4289 55.7237C55.8886 56.0968 56.2393 56.6355 56.4811 57.34C56.7259 58.0414 56.8483 58.8847 56.8483 59.8697C56.8483 60.8577 56.7259 61.7039 56.4811 62.4083C56.2393 63.1128 55.8901 63.6515 55.4334 64.0246C54.9797 64.3948 54.4305 64.5798 53.7858 64.5798ZM53.7858 63.8276C54.4932 63.8276 55.0454 63.4829 55.4424 62.7934C55.8394 62.1009 56.0379 61.1263 56.0379 59.8697C56.0379 59.0339 55.9468 58.3205 55.7647 57.7295C55.5856 57.1355 55.3275 56.6818 54.9902 56.3684C54.6559 56.055 54.2544 55.8983 53.7858 55.8983C53.0843 55.8983 52.5336 56.2475 52.1336 56.946C51.7336 57.6414 51.5337 58.616 51.5337 59.8697C51.5337 60.7054 51.6232 61.4188 51.8023 62.0098C51.9844 62.6008 52.2426 63.0516 52.5769 63.362C52.9142 63.6724 53.3171 63.8276 53.7858 63.8276ZM61.5181 64.5798C60.8734 64.5798 60.3227 64.3948 59.866 64.0246C59.4123 63.6515 59.063 63.1128 58.8183 62.4083C58.5765 61.7039 58.4556 60.8577 58.4556 59.8697C58.4556 58.8847 58.5765 58.0414 58.8183 57.34C59.063 56.6355 59.4138 56.0968 59.8705 55.7237C60.3301 55.3476 60.8794 55.1595 61.5181 55.1595C62.1569 55.1595 62.7046 55.3476 63.1613 55.7237C63.621 56.0968 63.9717 56.6355 64.2135 57.34C64.4582 58.0414 64.5806 58.8847 64.5806 59.8697C64.5806 60.8577 64.4582 61.7039 64.2135 62.4083C63.9717 63.1128 63.6225 63.6515 63.1658 64.0246C62.7121 64.3948 62.1629 64.5798 61.5181 64.5798ZM61.5181 63.8276C62.2255 63.8276 62.7777 63.4829 63.1747 62.7934C63.5717 62.1009 63.7702 61.1263 63.7702 59.8697C63.7702 59.0339 63.6792 58.3205 63.4971 57.7295C63.318 57.1355 63.0598 56.6818 62.7225 56.3684C62.3882 56.055 61.9867 55.8983 61.5181 55.8983C60.8167 55.8983 60.266 56.2475 59.866 56.946C59.466 57.6414 59.266 58.616 59.266 59.8697C59.266 60.7054 59.3556 61.4188 59.5347 62.0098C59.7167 62.6008 59.9749 63.0516 60.3092 63.362C60.6465 63.6724 61.0495 63.8276 61.5181 63.8276Z" fill="#75898C"/>
<path d="M73.7871 59.9612H746.999" stroke="#CBD6D8" stroke-width="1.05068" stroke-dasharray="4.2 4.2"/>
<path d="M27.9157 121.608C27.3307 121.608 26.8098 121.497 26.3531 121.276C25.8964 121.055 25.5382 120.754 25.2785 120.372C25.0189 119.987 24.889 119.553 24.889 119.069C24.889 118.69 24.9681 118.336 25.1263 118.008C25.2845 117.677 25.5024 117.399 25.78 117.175C26.0576 116.948 26.3695 116.8 26.7158 116.732V116.683C26.265 116.551 25.9024 116.293 25.6278 115.908C25.3532 115.52 25.2173 115.08 25.2203 114.587C25.2173 114.131 25.3338 113.722 25.5696 113.36C25.8054 112.999 26.1262 112.714 26.5322 112.505C26.9411 112.293 27.4023 112.187 27.9157 112.187C28.4261 112.187 28.8843 112.293 29.2902 112.505C29.6962 112.714 30.0171 112.999 30.2529 113.36C30.4917 113.722 30.6125 114.131 30.6155 114.587C30.6125 115.077 30.4737 115.517 30.1991 115.908C29.9245 116.296 29.5634 116.554 29.1156 116.683V116.732C29.4619 116.798 29.7723 116.944 30.0469 117.171C30.3215 117.397 30.5394 117.677 30.7006 118.008C30.8618 118.336 30.9424 118.69 30.9424 119.069C30.9424 119.553 30.811 119.987 30.5484 120.372C30.2887 120.754 29.9305 121.055 29.4738 121.276C29.0201 121.497 28.5007 121.608 27.9157 121.608ZM27.9157 120.855C28.3515 120.855 28.7336 120.778 29.0619 120.623C29.3932 120.464 29.6514 120.248 29.8365 119.973C30.0245 119.699 30.1185 119.384 30.1185 119.029C30.1185 118.662 30.0215 118.335 29.8275 118.048C29.6335 117.759 29.3708 117.53 29.0395 117.363C28.7082 117.193 28.3336 117.108 27.9157 117.108C27.4978 117.108 27.1217 117.193 26.7874 117.363C26.4561 117.53 26.1934 117.759 25.9994 118.048C25.8084 118.335 25.7128 118.662 25.7128 119.029C25.7128 119.384 25.8039 119.699 25.986 119.973C26.171 120.248 26.4292 120.464 26.7605 120.623C27.0948 120.778 27.4799 120.855 27.9157 120.855ZM27.9157 116.392C28.2739 116.392 28.5948 116.315 28.8783 116.163C29.1619 116.011 29.3858 115.804 29.5499 115.541C29.7171 115.275 29.8021 114.974 29.8051 114.636C29.8021 114.302 29.7186 114.007 29.5544 113.75C29.3902 113.49 29.1664 113.289 28.8828 113.145C28.6022 112.999 28.2798 112.926 27.9157 112.926C27.5515 112.926 27.2262 112.999 26.9396 113.145C26.6561 113.289 26.4322 113.49 26.268 113.75C26.1068 114.007 26.0277 114.302 26.0307 114.636C26.0277 114.974 26.1083 115.275 26.2725 115.541C26.4397 115.804 26.665 116.011 26.9486 116.163C27.2351 116.315 27.5575 116.392 27.9157 116.392ZM35.6492 121.608C35.0044 121.608 34.4537 121.423 33.997 121.052C33.5433 120.679 33.1941 120.141 32.9493 119.436C32.7076 118.732 32.5867 117.886 32.5867 116.898C32.5867 115.912 32.7076 115.069 32.9493 114.368C33.1941 113.663 33.5448 113.125 34.0015 112.751C34.4612 112.375 35.0104 112.187 35.6492 112.187C36.2879 112.187 36.8357 112.375 37.2924 112.751C37.752 113.125 38.1028 113.663 38.3445 114.368C38.5893 115.069 38.7117 115.912 38.7117 116.898C38.7117 117.886 38.5893 118.732 38.3445 119.436C38.1028 120.141 37.7535 120.679 37.2968 121.052C36.8431 121.423 36.2939 121.608 35.6492 121.608ZM35.6492 120.855C36.3566 120.855 36.9088 120.511 37.3058 119.821C37.7028 119.129 37.9013 118.154 37.9013 116.898C37.9013 116.062 37.8102 115.348 37.6282 114.757C37.4491 114.163 37.1909 113.71 36.8536 113.396C36.5193 113.083 36.1178 112.926 35.6492 112.926C34.9477 112.926 34.397 113.275 33.997 113.974C33.5971 114.669 33.3971 115.644 33.3971 116.898C33.3971 117.733 33.4866 118.447 33.6657 119.038C33.8478 119.629 34.106 120.079 34.4403 120.39C34.7776 120.7 35.1805 120.855 35.6492 120.855ZM41.5089 120.229L41.4283 120.708C41.3776 121.03 41.3059 121.385 41.2134 121.773C41.1209 122.161 41.0253 122.53 40.9268 122.879C40.8283 123.228 40.7433 123.509 40.6716 123.721H40.0582C40.097 123.518 40.1463 123.26 40.206 122.946C40.2687 122.633 40.3328 122.285 40.3985 121.903C40.4642 121.524 40.5239 121.133 40.5776 120.73L40.6403 120.229H41.5089ZM46.0534 121.608C45.4087 121.608 44.8579 121.423 44.4013 121.052C43.9476 120.679 43.5983 120.141 43.3536 119.436C43.1118 118.732 42.9909 117.886 42.9909 116.898C42.9909 115.912 43.1118 115.069 43.3536 114.368C43.5983 113.663 43.949 113.125 44.4057 112.751C44.8654 112.375 45.4146 112.187 46.0534 112.187C46.6922 112.187 47.2399 112.375 47.6966 112.751C48.1562 113.125 48.507 113.663 48.7488 114.368C48.9935 115.069 49.1159 115.912 49.1159 116.898C49.1159 117.886 48.9935 118.732 48.7488 119.436C48.507 120.141 48.1577 120.679 47.7011 121.052C47.2473 121.423 46.6981 121.608 46.0534 121.608ZM46.0534 120.855C46.7608 120.855 47.313 120.511 47.71 119.821C48.107 119.129 48.3055 118.154 48.3055 116.898C48.3055 116.062 48.2145 115.348 48.0324 114.757C47.8533 114.163 47.5951 113.71 47.2578 113.396C46.9235 113.083 46.522 112.926 46.0534 112.926C45.3519 112.926 44.8012 113.275 44.4013 113.974C44.0013 114.669 43.8013 115.644 43.8013 116.898C43.8013 117.733 43.8908 118.447 44.0699 119.038C44.252 119.629 44.5102 120.079 44.8445 120.39C45.1818 120.7 45.5848 120.855 46.0534 120.855ZM53.7858 121.608C53.141 121.608 52.5903 121.423 52.1336 121.052C51.6799 120.679 51.3307 120.141 51.0859 119.436C50.8441 118.732 50.7233 117.886 50.7233 116.898C50.7233 115.912 50.8441 115.069 51.0859 114.368C51.3307 113.663 51.6814 113.125 52.1381 112.751C52.5978 112.375 53.147 112.187 53.7858 112.187C54.4245 112.187 54.9723 112.375 55.4289 112.751C55.8886 113.125 56.2393 113.663 56.4811 114.368C56.7259 115.069 56.8483 115.912 56.8483 116.898C56.8483 117.886 56.7259 118.732 56.4811 119.436C56.2393 120.141 55.8901 120.679 55.4334 121.052C54.9797 121.423 54.4305 121.608 53.7858 121.608ZM53.7858 120.855C54.4932 120.855 55.0454 120.511 55.4424 119.821C55.8394 119.129 56.0379 118.154 56.0379 116.898C56.0379 116.062 55.9468 115.348 55.7647 114.757C55.5856 114.163 55.3275 113.71 54.9902 113.396C54.6559 113.083 54.2544 112.926 53.7858 112.926C53.0843 112.926 52.5336 113.275 52.1336 113.974C51.7336 114.669 51.5337 115.644 51.5337 116.898C51.5337 117.733 51.6232 118.447 51.8023 119.038C51.9844 119.629 52.2426 120.079 52.5769 120.39C52.9142 120.7 53.3171 120.855 53.7858 120.855ZM61.5181 121.608C60.8734 121.608 60.3227 121.423 59.866 121.052C59.4123 120.679 59.063 120.141 58.8183 119.436C58.5765 118.732 58.4556 117.886 58.4556 116.898C58.4556 115.912 58.5765 115.069 58.8183 114.368C59.063 113.663 59.4138 113.125 59.8705 112.751C60.3301 112.375 60.8794 112.187 61.5181 112.187C62.1569 112.187 62.7046 112.375 63.1613 112.751C63.621 113.125 63.9717 113.663 64.2135 114.368C64.4582 115.069 64.5806 115.912 64.5806 116.898C64.5806 117.886 64.4582 118.732 64.2135 119.436C63.9717 120.141 63.6225 120.679 63.1658 121.052C62.7121 121.423 62.1629 121.608 61.5181 121.608ZM61.5181 120.855C62.2255 120.855 62.7777 120.511 63.1747 119.821C63.5717 119.129 63.7702 118.154 63.7702 116.898C63.7702 116.062 63.6792 115.348 63.4971 114.757C63.318 114.163 63.0598 113.71 62.7225 113.396C62.3882 113.083 61.9867 112.926 61.5181 112.926C60.8167 112.926 60.266 113.275 59.866 113.974C59.466 114.669 59.266 115.644 59.266 116.898C59.266 117.733 59.3556 118.447 59.5347 119.038C59.7167 119.629 59.9749 120.079 60.3092 120.39C60.6465 120.7 61.0495 120.855 61.5181 120.855Z" fill="#75898C"/>
<path d="M73.7871 116.989H746.999" stroke="#CBD6D8" stroke-width="1.05068" stroke-dasharray="4.2 4.2"/>
<path d="M28.0064 178.638C27.6273 178.635 27.2572 178.559 26.896 178.409C26.5348 178.257 26.2095 178.014 25.9199 177.68C25.6304 177.342 25.4005 176.898 25.2304 176.345C25.0603 175.793 24.9752 175.114 24.9752 174.308C24.9752 173.562 25.0409 172.878 25.1722 172.258C25.3035 171.637 25.5005 171.099 25.7632 170.646C26.0259 170.192 26.3542 169.841 26.7482 169.594C27.1422 169.343 27.6034 169.217 28.1317 169.217C28.6272 169.217 29.0645 169.32 29.4436 169.526C29.8227 169.729 30.1301 170.013 30.3659 170.377C30.6017 170.741 30.7495 171.161 30.8092 171.635H29.9853C29.9018 171.152 29.7033 170.753 29.3899 170.44C29.0764 170.126 28.6571 169.97 28.1317 169.97C27.3795 169.97 26.7975 170.319 26.3856 171.017C25.9736 171.713 25.7662 172.701 25.7632 173.981H25.8214C25.9677 173.71 26.1557 173.475 26.3856 173.278C26.6184 173.078 26.8825 172.923 27.1781 172.813C27.4736 172.699 27.784 172.643 28.1093 172.643C28.6198 172.643 29.0869 172.772 29.5107 173.032C29.9346 173.289 30.2734 173.643 30.5271 174.093C30.7808 174.541 30.9077 175.053 30.9077 175.629C30.9077 176.175 30.7868 176.678 30.545 177.138C30.3062 177.598 29.9689 177.963 29.5331 178.235C29.1003 178.506 28.5914 178.641 28.0064 178.638ZM28.0064 177.886C28.4063 177.886 28.763 177.784 29.0764 177.581C29.3928 177.378 29.6421 177.107 29.8242 176.766C30.0062 176.423 30.0973 176.044 30.0973 175.629C30.0973 175.214 30.0062 174.838 29.8242 174.501C29.6421 174.163 29.3928 173.895 29.0764 173.695C28.763 173.495 28.4063 173.395 28.0064 173.395C27.7019 173.395 27.4183 173.457 27.1557 173.583C26.893 173.705 26.6646 173.874 26.4706 174.089C26.2796 174.301 26.1333 174.544 26.0319 174.819C25.9334 175.093 25.896 175.381 25.9199 175.683C25.9528 176.104 26.0617 176.481 26.2468 176.815C26.4348 177.147 26.6796 177.408 26.981 177.599C27.2855 177.79 27.6273 177.886 28.0064 177.886ZM35.6492 178.638C35.0044 178.638 34.4537 178.453 33.997 178.083C33.5433 177.709 33.1941 177.171 32.9493 176.466C32.7076 175.762 32.5867 174.916 32.5867 173.928C32.5867 172.943 32.7076 172.099 32.9493 171.398C33.1941 170.693 33.5448 170.155 34.0015 169.782C34.4612 169.405 35.0104 169.217 35.6492 169.217C36.2879 169.217 36.8357 169.405 37.2924 169.782C37.752 170.155 38.1028 170.693 38.3445 171.398C38.5893 172.099 38.7117 172.943 38.7117 173.928C38.7117 174.916 38.5893 175.762 38.3445 176.466C38.1028 177.171 37.7535 177.709 37.2968 178.083C36.8431 178.453 36.2939 178.638 35.6492 178.638ZM35.6492 177.886C36.3566 177.886 36.9088 177.541 37.3058 176.851C37.7028 176.159 37.9013 175.184 37.9013 173.928C37.9013 173.092 37.8102 172.378 37.6282 171.787C37.4491 171.193 37.1909 170.74 36.8536 170.426C36.5193 170.113 36.1178 169.956 35.6492 169.956C34.9477 169.956 34.397 170.305 33.997 171.004C33.5971 171.699 33.3971 172.674 33.3971 173.928C33.3971 174.763 33.4866 175.477 33.6657 176.068C33.8478 176.659 34.106 177.109 34.4403 177.42C34.7776 177.73 35.1805 177.886 35.6492 177.886ZM41.5089 177.259L41.4283 177.738C41.3776 178.06 41.3059 178.415 41.2134 178.803C41.1209 179.191 41.0253 179.56 40.9268 179.909C40.8283 180.259 40.7433 180.539 40.6716 180.751H40.0582C40.097 180.548 40.1463 180.29 40.206 179.976C40.2687 179.663 40.3328 179.315 40.3985 178.933C40.4642 178.554 40.5239 178.163 40.5776 177.76L40.6403 177.259H41.5089ZM46.0534 178.638C45.4087 178.638 44.8579 178.453 44.4013 178.083C43.9476 177.709 43.5983 177.171 43.3536 176.466C43.1118 175.762 42.9909 174.916 42.9909 173.928C42.9909 172.943 43.1118 172.099 43.3536 171.398C43.5983 170.693 43.949 170.155 44.4057 169.782C44.8654 169.405 45.4146 169.217 46.0534 169.217C46.6922 169.217 47.2399 169.405 47.6966 169.782C48.1562 170.155 48.507 170.693 48.7488 171.398C48.9935 172.099 49.1159 172.943 49.1159 173.928C49.1159 174.916 48.9935 175.762 48.7488 176.466C48.507 177.171 48.1577 177.709 47.7011 178.083C47.2473 178.453 46.6981 178.638 46.0534 178.638ZM46.0534 177.886C46.7608 177.886 47.313 177.541 47.71 176.851C48.107 176.159 48.3055 175.184 48.3055 173.928C48.3055 173.092 48.2145 172.378 48.0324 171.787C47.8533 171.193 47.5951 170.74 47.2578 170.426C46.9235 170.113 46.522 169.956 46.0534 169.956C45.3519 169.956 44.8012 170.305 44.4013 171.004C44.0013 171.699 43.8013 172.674 43.8013 173.928C43.8013 174.763 43.8908 175.477 44.0699 176.068C44.252 176.659 44.5102 177.109 44.8445 177.42C45.1818 177.73 45.5848 177.886 46.0534 177.886ZM53.7858 178.638C53.141 178.638 52.5903 178.453 52.1336 178.083C51.6799 177.709 51.3307 177.171 51.0859 176.466C50.8441 175.762 50.7233 174.916 50.7233 173.928C50.7233 172.943 50.8441 172.099 51.0859 171.398C51.3307 170.693 51.6814 170.155 52.1381 169.782C52.5978 169.405 53.147 169.217 53.7858 169.217C54.4245 169.217 54.9723 169.405 55.4289 169.782C55.8886 170.155 56.2393 170.693 56.4811 171.398C56.7259 172.099 56.8483 172.943 56.8483 173.928C56.8483 174.916 56.7259 175.762 56.4811 176.466C56.2393 177.171 55.8901 177.709 55.4334 178.083C54.9797 178.453 54.4305 178.638 53.7858 178.638ZM53.7858 177.886C54.4932 177.886 55.0454 177.541 55.4424 176.851C55.8394 176.159 56.0379 175.184 56.0379 173.928C56.0379 173.092 55.9468 172.378 55.7647 171.787C55.5856 171.193 55.3275 170.74 54.9902 170.426C54.6559 170.113 54.2544 169.956 53.7858 169.956C53.0843 169.956 52.5336 170.305 52.1336 171.004C51.7336 171.699 51.5337 172.674 51.5337 173.928C51.5337 174.763 51.6232 175.477 51.8023 176.068C51.9844 176.659 52.2426 177.109 52.5769 177.42C52.9142 177.73 53.3171 177.886 53.7858 177.886ZM61.5181 178.638C60.8734 178.638 60.3227 178.453 59.866 178.083C59.4123 177.709 59.063 177.171 58.8183 176.466C58.5765 175.762 58.4556 174.916 58.4556 173.928C58.4556 172.943 58.5765 172.099 58.8183 171.398C59.063 170.693 59.4138 170.155 59.8705 169.782C60.3301 169.405 60.8794 169.217 61.5181 169.217C62.1569 169.217 62.7046 169.405 63.1613 169.782C63.621 170.155 63.9717 170.693 64.2135 171.398C64.4582 172.099 64.5806 172.943 64.5806 173.928C64.5806 174.916 64.4582 175.762 64.2135 176.466C63.9717 177.171 63.6225 177.709 63.1658 178.083C62.7121 178.453 62.1629 178.638 61.5181 178.638ZM61.5181 177.886C62.2255 177.886 62.7777 177.541 63.1747 176.851C63.5717 176.159 63.7702 175.184 63.7702 173.928C63.7702 173.092 63.6792 172.378 63.4971 171.787C63.318 171.193 63.0598 170.74 62.7225 170.426C62.3882 170.113 61.9867 169.956 61.5181 169.956C60.8167 169.956 60.266 170.305 59.866 171.004C59.466 171.699 59.266 172.674 59.266 173.928C59.266 174.763 59.3556 175.477 59.5347 176.068C59.7167 176.659 59.9749 177.109 60.3092 177.42C60.6465 177.73 61.0495 177.886 61.5181 177.886Z" fill="#75898C"/>
<path d="M73.7871 174.019H746.999" stroke="#CBD6D8" stroke-width="1.05068" stroke-dasharray="4.2 4.2"/>
<path d="M24.6898 233.079V232.399L28.7776 225.88H29.279V227.021H28.9074L25.6255 232.269V232.327H30.9849V233.079H24.6898ZM28.9701 235.049V232.864V232.551V225.88H29.7671V235.049H28.9701ZM35.6492 235.175C35.0044 235.175 34.4537 234.989 33.997 234.619C33.5433 234.246 33.1941 233.707 32.9493 233.003C32.7076 232.299 32.5867 231.452 32.5867 230.464C32.5867 229.479 32.7076 228.636 32.9493 227.935C33.1941 227.23 33.5448 226.691 34.0015 226.318C34.4612 225.942 35.0104 225.754 35.6492 225.754C36.2879 225.754 36.8357 225.942 37.2924 226.318C37.752 226.691 38.1028 227.23 38.3445 227.935C38.5893 228.636 38.7117 229.479 38.7117 230.464C38.7117 231.452 38.5893 232.299 38.3445 233.003C38.1028 233.707 37.7535 234.246 37.2968 234.619C36.8431 234.989 36.2939 235.175 35.6492 235.175ZM35.6492 234.422C36.3566 234.422 36.9088 234.078 37.3058 233.388C37.7028 232.696 37.9013 231.721 37.9013 230.464C37.9013 229.629 37.8102 228.915 37.6282 228.324C37.4491 227.73 37.1909 227.277 36.8536 226.963C36.5193 226.65 36.1178 226.493 35.6492 226.493C34.9477 226.493 34.397 226.842 33.997 227.541C33.5971 228.236 33.3971 229.211 33.3971 230.464C33.3971 231.3 33.4866 232.014 33.6657 232.605C33.8478 233.196 34.106 233.646 34.4403 233.957C34.7776 234.267 35.1805 234.422 35.6492 234.422ZM41.5089 233.796L41.4283 234.275C41.3776 234.597 41.3059 234.952 41.2134 235.34C41.1209 235.728 41.0253 236.097 40.9268 236.446C40.8283 236.795 40.7433 237.076 40.6716 237.288H40.0582C40.097 237.085 40.1463 236.827 40.206 236.513C40.2687 236.2 40.3328 235.852 40.3985 235.47C40.4642 235.091 40.5239 234.7 40.5776 234.297L40.6403 233.796H41.5089ZM46.0534 235.175C45.4087 235.175 44.8579 234.989 44.4013 234.619C43.9476 234.246 43.5983 233.707 43.3536 233.003C43.1118 232.299 42.9909 231.452 42.9909 230.464C42.9909 229.479 43.1118 228.636 43.3536 227.935C43.5983 227.23 43.949 226.691 44.4057 226.318C44.8654 225.942 45.4146 225.754 46.0534 225.754C46.6922 225.754 47.2399 225.942 47.6966 226.318C48.1562 226.691 48.507 227.23 48.7488 227.935C48.9935 228.636 49.1159 229.479 49.1159 230.464C49.1159 231.452 48.9935 232.299 48.7488 233.003C48.507 233.707 48.1577 234.246 47.7011 234.619C47.2473 234.989 46.6981 235.175 46.0534 235.175ZM46.0534 234.422C46.7608 234.422 47.313 234.078 47.71 233.388C48.107 232.696 48.3055 231.721 48.3055 230.464C48.3055 229.629 48.2145 228.915 48.0324 228.324C47.8533 227.73 47.5951 227.277 47.2578 226.963C46.9235 226.65 46.522 226.493 46.0534 226.493C45.3519 226.493 44.8012 226.842 44.4013 227.541C44.0013 228.236 43.8013 229.211 43.8013 230.464C43.8013 231.3 43.8908 232.014 44.0699 232.605C44.252 233.196 44.5102 233.646 44.8445 233.957C45.1818 234.267 45.5848 234.422 46.0534 234.422ZM53.7858 235.175C53.141 235.175 52.5903 234.989 52.1336 234.619C51.6799 234.246 51.3307 233.707 51.0859 233.003C50.8441 232.299 50.7233 231.452 50.7233 230.464C50.7233 229.479 50.8441 228.636 51.0859 227.935C51.3307 227.23 51.6814 226.691 52.1381 226.318C52.5978 225.942 53.147 225.754 53.7858 225.754C54.4245 225.754 54.9723 225.942 55.4289 226.318C55.8886 226.691 56.2393 227.23 56.4811 227.935C56.7259 228.636 56.8483 229.479 56.8483 230.464C56.8483 231.452 56.7259 232.299 56.4811 233.003C56.2393 233.707 55.8901 234.246 55.4334 234.619C54.9797 234.989 54.4305 235.175 53.7858 235.175ZM53.7858 234.422C54.4932 234.422 55.0454 234.078 55.4424 233.388C55.8394 232.696 56.0379 231.721 56.0379 230.464C56.0379 229.629 55.9468 228.915 55.7647 228.324C55.5856 227.73 55.3275 227.277 54.9902 226.963C54.6559 226.65 54.2544 226.493 53.7858 226.493C53.0843 226.493 52.5336 226.842 52.1336 227.541C51.7336 228.236 51.5337 229.211 51.5337 230.464C51.5337 231.3 51.6232 232.014 51.8023 232.605C51.9844 233.196 52.2426 233.646 52.5769 233.957C52.9142 234.267 53.3171 234.422 53.7858 234.422ZM61.5181 235.175C60.8734 235.175 60.3227 234.989 59.866 234.619C59.4123 234.246 59.063 233.707 58.8183 233.003C58.5765 232.299 58.4556 231.452 58.4556 230.464C58.4556 229.479 58.5765 228.636 58.8183 227.935C59.063 227.23 59.4138 226.691 59.8705 226.318C60.3301 225.942 60.8794 225.754 61.5181 225.754C62.1569 225.754 62.7046 225.942 63.1613 226.318C63.621 226.691 63.9717 227.23 64.2135 227.935C64.4582 228.636 64.5806 229.479 64.5806 230.464C64.5806 231.452 64.4582 232.299 64.2135 233.003C63.9717 233.707 63.6225 234.246 63.1658 234.619C62.7121 234.989 62.1629 235.175 61.5181 235.175ZM61.5181 234.422C62.2255 234.422 62.7777 234.078 63.1747 233.388C63.5717 232.696 63.7702 231.721 63.7702 230.464C63.7702 229.629 63.6792 228.915 63.4971 228.324C63.318 227.73 63.0598 227.277 62.7225 226.963C62.3882 226.65 61.9867 226.493 61.5181 226.493C60.8167 226.493 60.266 226.842 59.866 227.541C59.466 228.236 59.266 229.211 59.266 230.464C59.266 231.3 59.3556 232.014 59.5347 232.605C59.7167 233.196 59.9749 233.646 60.3092 233.957C60.6465 234.267 61.0495 234.422 61.5181 234.422Z" fill="#75898C"/>
<path d="M73.7871 231.049H746.999" stroke="#CBD6D8" stroke-width="1.05068" stroke-dasharray="4.2 4.2"/>
<path d="M25.1062 292.079V291.466L28.1015 288.099C28.4925 287.657 28.8074 287.28 29.0462 286.966C29.285 286.653 29.4581 286.363 29.5656 286.098C29.676 285.832 29.7313 285.556 29.7313 285.269C29.7313 284.92 29.6492 284.616 29.485 284.356C29.3238 284.093 29.1014 283.889 28.8179 283.742C28.5343 283.596 28.2149 283.523 27.8597 283.523C27.4836 283.523 27.1538 283.604 26.8702 283.765C26.5897 283.926 26.3718 284.147 26.2165 284.428C26.0613 284.708 25.9837 285.03 25.9837 285.395H25.1823C25.1823 284.887 25.2987 284.438 25.5315 284.047C25.7673 283.653 26.0882 283.344 26.4941 283.12C26.9031 282.896 27.3657 282.784 27.8821 282.784C28.3925 282.784 28.8462 282.895 29.2432 283.116C29.6402 283.334 29.9521 283.631 30.179 284.007C30.4058 284.383 30.5193 284.804 30.5193 285.269C30.5193 285.607 30.4596 285.933 30.3402 286.25C30.2238 286.566 30.0223 286.918 29.7357 287.306C29.4492 287.694 29.0522 288.169 28.5448 288.73L26.2703 291.269V291.327H30.8058V292.079H25.1062ZM35.6492 292.205C35.0044 292.205 34.4537 292.02 33.997 291.649C33.5433 291.276 33.1941 290.738 32.9493 290.033C32.7076 289.329 32.5867 288.482 32.5867 287.494C32.5867 286.509 32.7076 285.666 32.9493 284.965C33.1941 284.26 33.5448 283.722 34.0015 283.348C34.4612 282.972 35.0104 282.784 35.6492 282.784C36.2879 282.784 36.8357 282.972 37.2924 283.348C37.752 283.722 38.1028 284.26 38.3445 284.965C38.5893 285.666 38.7117 286.509 38.7117 287.494C38.7117 288.482 38.5893 289.329 38.3445 290.033C38.1028 290.738 37.7535 291.276 37.2968 291.649C36.8431 292.02 36.2939 292.205 35.6492 292.205ZM35.6492 291.452C36.3566 291.452 36.9088 291.108 37.3058 290.418C37.7028 289.726 37.9013 288.751 37.9013 287.494C37.9013 286.659 37.8102 285.945 37.6282 285.354C37.4491 284.76 37.1909 284.307 36.8536 283.993C36.5193 283.68 36.1178 283.523 35.6492 283.523C34.9477 283.523 34.397 283.872 33.997 284.571C33.5971 285.266 33.3971 286.241 33.3971 287.494C33.3971 288.33 33.4866 289.044 33.6657 289.635C33.8478 290.226 34.106 290.676 34.4403 290.987C34.7776 291.297 35.1805 291.452 35.6492 291.452ZM41.5089 290.826L41.4283 291.305C41.3776 291.627 41.3059 291.982 41.2134 292.37C41.1209 292.758 41.0253 293.127 40.9268 293.476C40.8283 293.825 40.7433 294.106 40.6716 294.318H40.0582C40.097 294.115 40.1463 293.857 40.206 293.543C40.2687 293.23 40.3328 292.882 40.3985 292.5C40.4642 292.121 40.5239 291.73 40.5776 291.327L40.6403 290.826H41.5089ZM46.0534 292.205C45.4087 292.205 44.8579 292.02 44.4013 291.649C43.9476 291.276 43.5983 290.738 43.3536 290.033C43.1118 289.329 42.9909 288.482 42.9909 287.494C42.9909 286.509 43.1118 285.666 43.3536 284.965C43.5983 284.26 43.949 283.722 44.4057 283.348C44.8654 282.972 45.4146 282.784 46.0534 282.784C46.6922 282.784 47.2399 282.972 47.6966 283.348C48.1562 283.722 48.507 284.26 48.7488 284.965C48.9935 285.666 49.1159 286.509 49.1159 287.494C49.1159 288.482 48.9935 289.329 48.7488 290.033C48.507 290.738 48.1577 291.276 47.7011 291.649C47.2473 292.02 46.6981 292.205 46.0534 292.205ZM46.0534 291.452C46.7608 291.452 47.313 291.108 47.71 290.418C48.107 289.726 48.3055 288.751 48.3055 287.494C48.3055 286.659 48.2145 285.945 48.0324 285.354C47.8533 284.76 47.5951 284.307 47.2578 283.993C46.9235 283.68 46.522 283.523 46.0534 283.523C45.3519 283.523 44.8012 283.872 44.4013 284.571C44.0013 285.266 43.8013 286.241 43.8013 287.494C43.8013 288.33 43.8908 289.044 44.0699 289.635C44.252 290.226 44.5102 290.676 44.8445 290.987C45.1818 291.297 45.5848 291.452 46.0534 291.452ZM53.7858 292.205C53.141 292.205 52.5903 292.02 52.1336 291.649C51.6799 291.276 51.3307 290.738 51.0859 290.033C50.8441 289.329 50.7233 288.482 50.7233 287.494C50.7233 286.509 50.8441 285.666 51.0859 284.965C51.3307 284.26 51.6814 283.722 52.1381 283.348C52.5978 282.972 53.147 282.784 53.7858 282.784C54.4245 282.784 54.9723 282.972 55.4289 283.348C55.8886 283.722 56.2393 284.26 56.4811 284.965C56.7259 285.666 56.8483 286.509 56.8483 287.494C56.8483 288.482 56.7259 289.329 56.4811 290.033C56.2393 290.738 55.8901 291.276 55.4334 291.649C54.9797 292.02 54.4305 292.205 53.7858 292.205ZM53.7858 291.452C54.4932 291.452 55.0454 291.108 55.4424 290.418C55.8394 289.726 56.0379 288.751 56.0379 287.494C56.0379 286.659 55.9468 285.945 55.7647 285.354C55.5856 284.76 55.3275 284.307 54.9902 283.993C54.6559 283.68 54.2544 283.523 53.7858 283.523C53.0843 283.523 52.5336 283.872 52.1336 284.571C51.7336 285.266 51.5337 286.241 51.5337 287.494C51.5337 288.33 51.6232 289.044 51.8023 289.635C51.9844 290.226 52.2426 290.676 52.5769 290.987C52.9142 291.297 53.3171 291.452 53.7858 291.452ZM61.5181 292.205C60.8734 292.205 60.3227 292.02 59.866 291.649C59.4123 291.276 59.063 290.738 58.8183 290.033C58.5765 289.329 58.4556 288.482 58.4556 287.494C58.4556 286.509 58.5765 285.666 58.8183 284.965C59.063 284.26 59.4138 283.722 59.8705 283.348C60.3301 282.972 60.8794 282.784 61.5181 282.784C62.1569 282.784 62.7046 282.972 63.1613 283.348C63.621 283.722 63.9717 284.26 64.2135 284.965C64.4582 285.666 64.5806 286.509 64.5806 287.494C64.5806 288.482 64.4582 289.329 64.2135 290.033C63.9717 290.738 63.6225 291.276 63.1658 291.649C62.7121 292.02 62.1629 292.205 61.5181 292.205ZM61.5181 291.452C62.2255 291.452 62.7777 291.108 63.1747 290.418C63.5717 289.726 63.7702 288.751 63.7702 287.494C63.7702 286.659 63.6792 285.945 63.4971 285.354C63.318 284.76 63.0598 284.307 62.7225 283.993C62.3882 283.68 61.9867 283.523 61.5181 283.523C60.8167 283.523 60.266 283.872 59.866 284.571C59.466 285.266 59.266 286.241 59.266 287.494C59.266 288.33 59.3556 289.044 59.5347 289.635C59.7167 290.226 59.9749 290.676 60.3092 290.987C60.6465 291.297 61.0495 291.452 61.5181 291.452Z" fill="#75898C"/>
<path d="M73.7871 288.079H746.999" stroke="#CBD6D8" stroke-width="1.05068" stroke-dasharray="4.2 4.2"/>
<path d="M61.5181 349.235C60.8734 349.235 60.3227 349.05 59.866 348.679C59.4123 348.306 59.063 347.768 58.8183 347.063C58.5765 346.359 58.4556 345.513 58.4556 344.525C58.4556 343.54 58.5765 342.696 58.8183 341.995C59.063 341.29 59.4138 340.752 59.8705 340.379C60.3301 340.002 60.8794 339.814 61.5181 339.814C62.1569 339.814 62.7046 340.002 63.1613 340.379C63.621 340.752 63.9717 341.29 64.2135 341.995C64.4582 342.696 64.5806 343.54 64.5806 344.525C64.5806 345.513 64.4582 346.359 64.2135 347.063C63.9717 347.768 63.6225 348.306 63.1658 348.679C62.7121 349.05 62.1629 349.235 61.5181 349.235ZM61.5181 348.482C62.2255 348.482 62.7777 348.138 63.1747 347.448C63.5717 346.756 63.7702 345.781 63.7702 344.525C63.7702 343.689 63.6792 342.975 63.4971 342.384C63.318 341.79 63.0598 341.337 62.7225 341.023C62.3882 340.71 61.9867 340.553 61.5181 340.553C60.8167 340.553 60.266 340.902 59.866 341.601C59.466 342.296 59.266 343.271 59.266 344.525C59.266 345.36 59.3556 346.074 59.5347 346.665C59.7167 347.256 59.9749 347.706 60.3092 348.017C60.6465 348.327 61.0495 348.482 61.5181 348.482Z" fill="#75898C"/>
<path d="M73.7871 345.109H746.999" stroke="#CBD6D8" stroke-width="1.05068"/>
<path d="M16.408 22.7116H17.3751L20.0929 27.0635H20.1735L22.8912 22.7116H23.8583L20.5496 27.9098V31.8812H19.7168V27.9098L16.408 22.7116ZM27.0731 32.0244C26.4313 32.0244 25.8761 31.8752 25.4075 31.5767C24.9389 31.2752 24.5762 30.8588 24.3195 30.3275C24.0658 29.7932 23.9389 29.1783 23.9389 28.4829C23.9389 27.7904 24.0658 27.1755 24.3195 26.6382C24.5762 26.0979 24.9299 25.6756 25.3806 25.3711C25.8343 25.0637 26.3582 24.9099 26.9522 24.9099C27.3253 24.9099 27.685 24.9786 28.0312 25.1159C28.3775 25.2502 28.6879 25.4577 28.9625 25.7383C29.2401 26.0159 29.4595 26.3666 29.6207 26.7904C29.7818 27.2113 29.8624 27.7098 29.8624 28.2859V28.6799H24.4896V27.9769H29.0476C29.0476 27.5352 28.958 27.1382 28.7789 26.786C28.6028 26.4308 28.3566 26.1502 28.0402 25.9442C27.7268 25.7383 27.3641 25.6353 26.9522 25.6353C26.5164 25.6353 26.1328 25.7517 25.8015 25.9845C25.4702 26.2173 25.2105 26.5248 25.0224 26.9068C24.8374 27.2889 24.7434 27.7068 24.7404 28.1605V28.5814C24.7404 29.1276 24.8344 29.6052 25.0224 30.0141C25.2135 30.4201 25.4836 30.735 25.8328 30.9588C26.1821 31.1827 26.5955 31.2946 27.0731 31.2946C27.3984 31.2946 27.6835 31.2439 27.9282 31.1424C28.176 31.0409 28.3834 30.9051 28.5506 30.735C28.7207 30.5618 28.8491 30.3723 28.9356 30.1663L29.6923 30.4126C29.5878 30.7021 29.4162 30.9693 29.1774 31.214C28.9416 31.4588 28.6461 31.6558 28.2909 31.805C27.9387 31.9513 27.5327 32.0244 27.0731 32.0244ZM33.5395 32.0379C33.1246 32.0379 32.7455 31.9573 32.4022 31.7961C32.0589 31.6319 31.7858 31.3961 31.5829 31.0887C31.3799 30.7782 31.2784 30.4022 31.2784 29.9604C31.2784 29.6201 31.3426 29.3336 31.4709 29.1007C31.5993 28.8679 31.7814 28.6769 32.0172 28.5276C32.253 28.3784 32.5321 28.2605 32.8544 28.1739C33.1768 28.0874 33.532 28.0202 33.92 27.9724C34.3051 27.9247 34.6304 27.8829 34.8961 27.8471C35.1647 27.8113 35.3692 27.7546 35.5095 27.6769C35.6498 27.5993 35.7199 27.474 35.7199 27.3008V27.1397C35.7199 26.671 35.5796 26.3024 35.2991 26.0338C35.0215 25.7621 34.6215 25.6263 34.0991 25.6263C33.6036 25.6263 33.1992 25.7353 32.8858 25.9532C32.5753 26.1711 32.3574 26.4278 32.2321 26.7233L31.4754 26.4502C31.6306 26.0741 31.8455 25.7741 32.1201 25.5502C32.3948 25.3234 32.7022 25.1607 33.0425 25.0622C33.3827 24.9607 33.7275 24.9099 34.0767 24.9099C34.3394 24.9099 34.6125 24.9443 34.8961 25.0129C35.1826 25.0816 35.4483 25.201 35.6931 25.3711C35.9378 25.5383 36.1363 25.7726 36.2885 26.0741C36.4408 26.3725 36.5169 26.7516 36.5169 27.2113V31.8812H35.7199V30.7932H35.6707C35.5752 30.9961 35.4334 31.1931 35.2453 31.3842C35.0573 31.5752 34.8215 31.7319 34.5379 31.8543C34.2543 31.9767 33.9215 32.0379 33.5395 32.0379ZM33.6469 31.3081C34.0708 31.3081 34.4379 31.214 34.7483 31.026C35.0588 30.8379 35.2976 30.5887 35.4647 30.2783C35.6349 29.9649 35.7199 29.6201 35.7199 29.244V28.25C35.6602 28.3068 35.5602 28.3575 35.4199 28.4023C35.2826 28.447 35.1229 28.4873 34.9409 28.5232C34.7618 28.556 34.5827 28.5844 34.4036 28.6082C34.2245 28.6321 34.0633 28.653 33.92 28.6709C33.532 28.7187 33.2007 28.7933 32.9261 28.8948C32.6515 28.9963 32.441 29.1366 32.2948 29.3156C32.1485 29.4918 32.0754 29.7186 32.0754 29.9962C32.0754 30.4141 32.2246 30.738 32.5231 30.9678C32.8216 31.1946 33.1962 31.3081 33.6469 31.3081ZM38.6369 31.8812V25.004H39.4115V26.0606H39.4697C39.607 25.7144 39.8458 25.4353 40.1861 25.2234C40.5293 25.0084 40.9174 24.901 41.3502 24.901C41.4158 24.901 41.489 24.9025 41.5696 24.9055C41.6502 24.9085 41.7173 24.9114 41.771 24.9144V25.7248C41.7352 25.7189 41.6725 25.7099 41.583 25.698C41.4934 25.686 41.3964 25.68 41.292 25.68C40.9338 25.68 40.6144 25.7562 40.3338 25.9084C40.0562 26.0576 39.8368 26.2651 39.6756 26.5307C39.5145 26.7964 39.4339 27.0994 39.4339 27.4396V31.8812H38.6369ZM43.928 22.7116V31.8812H43.131V22.7116H43.928ZM46.592 34.4601C46.4338 34.4601 46.2861 34.4452 46.1488 34.4153C46.0115 34.3855 45.9025 34.3527 45.8219 34.3168L46.0368 33.6139C46.3085 33.6975 46.5502 33.7273 46.7622 33.7034C46.9741 33.6825 47.1621 33.587 47.3263 33.4169C47.4905 33.2497 47.6367 32.993 47.7651 32.6468L48.0158 31.9483L45.4861 25.004H46.3502L48.3919 30.829H48.4546L50.4963 25.004H51.3604L48.4501 32.9692C48.3277 33.3005 48.177 33.5766 47.9979 33.7975C47.8188 34.0213 47.6114 34.187 47.3756 34.2945C47.1427 34.4049 46.8816 34.4601 46.592 34.4601ZM56.6313 31.8812V22.7116H61.9504V23.4638H57.4686V26.9158H61.6683V27.668H57.4686V31.129H62.04V31.8812H56.6313ZM64.7487 27.5829V31.8812H63.9518V25.004H64.7264V26.083H64.798C64.9592 25.7308 65.2099 25.4487 65.5502 25.2368C65.8935 25.0219 66.3173 24.9144 66.8218 24.9144C67.2844 24.9144 67.6904 25.0114 68.0396 25.2055C68.3918 25.3965 68.6649 25.6786 68.8589 26.0517C69.0559 26.4248 69.1545 26.883 69.1545 27.4262V31.8812H68.3575V27.4755C68.3575 26.9113 68.1993 26.4651 67.8829 26.1367C67.5695 25.8084 67.1486 25.6442 66.6203 25.6442C66.2591 25.6442 65.9382 25.7218 65.6576 25.8771C65.3771 26.0323 65.1547 26.2561 64.9905 26.5487C64.8293 26.8382 64.7487 27.1829 64.7487 27.5829ZM73.8769 34.6034C73.4083 34.6034 72.9979 34.5422 72.6457 34.4198C72.2934 34.3004 71.9964 34.1363 71.7547 33.9273C71.5129 33.7184 71.3248 33.4841 71.1905 33.2244L71.8442 32.7945C71.9427 32.9677 72.074 33.1378 72.2382 33.305C72.4054 33.4721 72.6218 33.6109 72.8874 33.7214C73.1561 33.8318 73.4859 33.887 73.8769 33.887C74.4858 33.887 74.9769 33.7348 75.35 33.4303C75.7261 33.1259 75.9141 32.6528 75.9141 32.011V30.4618H75.8425C75.7499 30.6708 75.6171 30.8797 75.444 31.0887C75.2709 31.2946 75.044 31.4663 74.7634 31.6036C74.4858 31.7409 74.1411 31.8095 73.7292 31.8095C73.1799 31.8095 72.6919 31.6737 72.2651 31.4021C71.8412 31.1305 71.5069 30.7424 71.2622 30.238C71.0204 29.7305 70.8995 29.1261 70.8995 28.4247C70.8995 27.7292 71.0174 27.1173 71.2532 26.5889C71.492 26.0606 71.8248 25.6487 72.2516 25.3532C72.6785 25.0577 73.1755 24.9099 73.7426 24.9099C74.1635 24.9099 74.5127 24.9846 74.7903 25.1338C75.0679 25.2801 75.2903 25.4622 75.4574 25.68C75.6276 25.8979 75.7604 26.1099 75.8559 26.3158H75.9365V25.004H76.7156V32.0603C76.7156 32.6423 76.5917 33.1214 76.3439 33.4975C76.0962 33.8736 75.7589 34.1512 75.3321 34.3303C74.9052 34.5123 74.4202 34.6034 73.8769 34.6034ZM73.8232 31.0797C74.265 31.0797 74.6425 30.9738 74.956 30.7618C75.2694 30.5469 75.5097 30.2395 75.6768 29.8395C75.844 29.4395 75.9275 28.9634 75.9275 28.4112C75.9275 27.8739 75.8455 27.3979 75.6813 26.983C75.5171 26.5651 75.2783 26.2367 74.9649 25.9979C74.6545 25.7562 74.2739 25.6353 73.8232 25.6353C73.3635 25.6353 72.9755 25.7591 72.6591 26.0069C72.3427 26.2546 72.1039 26.5889 71.9427 27.0098C71.7815 27.4277 71.7009 27.8948 71.7009 28.4112C71.7009 28.9366 71.783 29.4007 71.9472 29.8037C72.1114 30.2037 72.3516 30.5171 72.668 30.7439C72.9844 30.9678 73.3695 31.0797 73.8232 31.0797ZM80.7463 32.0379C80.3314 32.0379 79.9523 31.9573 79.609 31.7961C79.2658 31.6319 78.9927 31.3961 78.7897 31.0887C78.5867 30.7782 78.4852 30.4022 78.4852 29.9604C78.4852 29.6201 78.5494 29.3336 78.6777 29.1007C78.8061 28.8679 78.9882 28.6769 79.224 28.5276C79.4598 28.3784 79.7389 28.2605 80.0612 28.1739C80.3836 28.0874 80.7388 28.0202 81.1269 27.9724C81.5119 27.9247 81.8373 27.8829 82.1029 27.8471C82.3716 27.8113 82.576 27.7546 82.7163 27.6769C82.8566 27.5993 82.9267 27.474 82.9267 27.3008V27.1397C82.9267 26.671 82.7865 26.3024 82.5059 26.0338C82.2283 25.7621 81.8283 25.6263 81.3059 25.6263C80.8105 25.6263 80.406 25.7353 80.0926 25.9532C79.7822 26.1711 79.5643 26.4278 79.4389 26.7233L78.6822 26.4502C78.8374 26.0741 79.0524 25.7741 79.327 25.5502C79.6016 25.3234 79.909 25.1607 80.2493 25.0622C80.5896 24.9607 80.9343 24.9099 81.2836 24.9099C81.5462 24.9099 81.8193 24.9443 82.1029 25.0129C82.3895 25.0816 82.6551 25.201 82.8999 25.3711C83.1446 25.5383 83.3431 25.7726 83.4954 26.0741C83.6476 26.3725 83.7237 26.7516 83.7237 27.2113V31.8812H82.9267V30.7932H82.8775C82.782 30.9961 82.6402 31.1931 82.4521 31.3842C82.2641 31.5752 82.0283 31.7319 81.7447 31.8543C81.4612 31.9767 81.1283 32.0379 80.7463 32.0379ZM80.8537 31.3081C81.2776 31.3081 81.6447 31.214 81.9552 31.026C82.2656 30.8379 82.5044 30.5887 82.6715 30.2783C82.8417 29.9649 82.9267 29.6201 82.9267 29.244V28.25C82.867 28.3068 82.7671 28.3575 82.6268 28.4023C82.4895 28.447 82.3298 28.4873 82.1477 28.5232C81.9686 28.556 81.7895 28.5844 81.6104 28.6082C81.4313 28.6321 81.2701 28.653 81.1269 28.6709C80.7388 28.7187 80.4075 28.7933 80.1329 28.8948C79.8583 28.9963 79.6478 29.1366 79.5016 29.3156C79.3553 29.4918 79.2822 29.7186 79.2822 29.9962C79.2822 30.4141 79.4314 30.738 79.7299 30.9678C80.0284 31.1946 80.403 31.3081 80.8537 31.3081ZM88.4675 34.6034C87.9988 34.6034 87.5884 34.5422 87.2362 34.4198C86.884 34.3004 86.587 34.1363 86.3452 33.9273C86.1034 33.7184 85.9154 33.4841 85.781 33.2244L86.4347 32.7945C86.5332 32.9677 86.6646 33.1378 86.8287 33.305C86.9959 33.4721 87.2123 33.6109 87.478 33.7214C87.7466 33.8318 88.0764 33.887 88.4675 33.887C89.0764 33.887 89.5674 33.7348 89.9405 33.4303C90.3166 33.1259 90.5046 32.6528 90.5046 32.011V30.4618H90.433C90.3405 30.6708 90.2076 30.8797 90.0345 31.0887C89.8614 31.2946 89.6345 31.4663 89.354 31.6036C89.0764 31.7409 88.7316 31.8095 88.3197 31.8095C87.7705 31.8095 87.2825 31.6737 86.8556 31.4021C86.4318 31.1305 86.0974 30.7424 85.8527 30.238C85.6109 29.7305 85.49 29.1261 85.49 28.4247C85.49 27.7292 85.6079 27.1173 85.8437 26.5889C86.0825 26.0606 86.4153 25.6487 86.8422 25.3532C87.269 25.0577 87.766 24.9099 88.3331 24.9099C88.754 24.9099 89.1032 24.9846 89.3808 25.1338C89.6584 25.2801 89.8808 25.4622 90.048 25.68C90.2181 25.8979 90.3509 26.1099 90.4464 26.3158H90.527V25.004H91.3061V32.0603C91.3061 32.6423 91.1822 33.1214 90.9345 33.4975C90.6867 33.8736 90.3494 34.1512 89.9226 34.3303C89.4957 34.5123 89.0107 34.6034 88.4675 34.6034ZM88.4137 31.0797C88.8555 31.0797 89.2331 30.9738 89.5465 30.7618C89.8599 30.5469 90.1002 30.2395 90.2673 29.8395C90.4345 29.4395 90.5181 28.9634 90.5181 28.4112C90.5181 27.8739 90.436 27.3979 90.2718 26.983C90.1077 26.5651 89.8689 26.2367 89.5554 25.9979C89.245 25.7562 88.8644 25.6353 88.4137 25.6353C87.9541 25.6353 87.566 25.7591 87.2496 26.0069C86.9332 26.2546 86.6944 26.5889 86.5332 27.0098C86.3721 27.4277 86.2915 27.8948 86.2915 28.4112C86.2915 28.9366 86.3736 29.4007 86.5377 29.8037C86.7019 30.2037 86.9422 30.5171 87.2586 30.7439C87.575 30.9678 87.96 31.0797 88.4137 31.0797ZM96.1965 32.0244C95.5547 32.0244 94.9995 31.8752 94.5309 31.5767C94.0623 31.2752 93.6996 30.8588 93.4429 30.3275C93.1892 29.7932 93.0623 29.1783 93.0623 28.4829C93.0623 27.7904 93.1892 27.1755 93.4429 26.6382C93.6996 26.0979 94.0533 25.6756 94.504 25.3711C94.9577 25.0637 95.4816 24.9099 96.0756 24.9099C96.4487 24.9099 96.8084 24.9786 97.1546 25.1159C97.5009 25.2502 97.8113 25.4577 98.0859 25.7383C98.3635 26.0159 98.5829 26.3666 98.7441 26.7904C98.9052 27.2113 98.9858 27.7098 98.9858 28.2859V28.6799H93.613V27.9769H98.171C98.171 27.5352 98.0814 27.1382 97.9023 26.786C97.7262 26.4308 97.48 26.1502 97.1636 25.9442C96.8501 25.7383 96.4875 25.6353 96.0756 25.6353C95.6398 25.6353 95.2562 25.7517 94.9249 25.9845C94.5936 26.2173 94.3339 26.5248 94.1458 26.9068C93.9608 27.2889 93.8667 27.7068 93.8638 28.1605V28.5814C93.8638 29.1276 93.9578 29.6052 94.1458 30.0141C94.3369 30.4201 94.607 30.735 94.9562 30.9588C95.3055 31.1827 95.7189 31.2946 96.1965 31.2946C96.5218 31.2946 96.8069 31.2439 97.0516 31.1424C97.2994 31.0409 97.5068 30.9051 97.674 30.735C97.8441 30.5618 97.9725 30.3723 98.059 30.1663L98.8157 30.4126C98.7112 30.7021 98.5396 30.9693 98.3008 31.214C98.065 31.4588 97.7695 31.6558 97.4143 31.805C97.0621 31.9513 96.6561 32.0244 96.1965 32.0244ZM100.742 31.8812V25.004H101.517V26.0606H101.588C101.726 25.7054 101.954 25.4263 102.273 25.2234C102.596 25.0174 102.982 24.9144 103.433 24.9144C103.908 24.9144 104.297 25.0264 104.602 25.2502C104.909 25.4711 105.139 25.7756 105.291 26.1636H105.349C105.504 25.7815 105.757 25.4786 106.106 25.2547C106.458 25.0279 106.885 24.9144 107.386 24.9144C108.025 24.9144 108.53 25.1159 108.9 25.5189C109.27 25.9188 109.455 26.5039 109.455 27.274V31.8812H108.658V27.274C108.658 26.7307 108.519 26.3233 108.242 26.0517C107.964 25.78 107.598 25.6442 107.145 25.6442C106.619 25.6442 106.215 25.8054 105.931 26.1278C105.648 26.4502 105.506 26.8591 105.506 27.3546V31.8812H104.691V27.2023C104.691 26.7367 104.561 26.3606 104.302 26.0741C104.042 25.7875 103.676 25.6442 103.205 25.6442C102.888 25.6442 102.603 25.7218 102.349 25.8771C102.099 26.0323 101.9 26.2487 101.754 26.5263C101.611 26.8009 101.539 27.1173 101.539 27.4755V31.8812H100.742ZM114.345 32.0244C113.704 32.0244 113.148 31.8752 112.68 31.5767C112.211 31.2752 111.848 30.8588 111.592 30.3275C111.338 29.7932 111.211 29.1783 111.211 28.4829C111.211 27.7904 111.338 27.1755 111.592 26.6382C111.848 26.0979 112.202 25.6756 112.653 25.3711C113.107 25.0637 113.63 24.9099 114.224 24.9099C114.598 24.9099 114.957 24.9786 115.304 25.1159C115.65 25.2502 115.96 25.4577 116.235 25.7383C116.512 26.0159 116.732 26.3666 116.893 26.7904C117.054 27.2113 117.135 27.7098 117.135 28.2859V28.6799H111.762V27.9769H116.32C116.32 27.5352 116.23 27.1382 116.051 26.786C115.875 26.4308 115.629 26.1502 115.312 25.9442C114.999 25.7383 114.636 25.6353 114.224 25.6353C113.789 25.6353 113.405 25.7517 113.074 25.9845C112.742 26.2173 112.483 26.5248 112.295 26.9068C112.11 27.2889 112.016 27.7068 112.013 28.1605V28.5814C112.013 29.1276 112.107 29.6052 112.295 30.0141C112.486 30.4201 112.756 30.735 113.105 30.9588C113.454 31.1827 113.868 31.2946 114.345 31.2946C114.671 31.2946 114.956 31.2439 115.201 31.1424C115.448 31.0409 115.656 30.9051 115.823 30.735C115.993 30.5618 116.121 30.3723 116.208 30.1663L116.965 30.4126C116.86 30.7021 116.688 30.9693 116.45 31.214C116.214 31.4588 115.918 31.6558 115.563 31.805C115.211 31.9513 114.805 32.0244 114.345 32.0244ZM119.688 27.5829V31.8812H118.891V25.004H119.666V26.083H119.737C119.898 25.7308 120.149 25.4487 120.489 25.2368C120.833 25.0219 121.257 24.9144 121.761 24.9144C122.224 24.9144 122.63 25.0114 122.979 25.2055C123.331 25.3965 123.604 25.6786 123.798 26.0517C123.995 26.4248 124.094 26.883 124.094 27.4262V31.8812H123.297V27.4755C123.297 26.9113 123.138 26.4651 122.822 26.1367C122.509 25.8084 122.088 25.6442 121.559 25.6442C121.198 25.6442 120.877 25.7218 120.597 25.8771C120.316 26.0323 120.094 26.2561 119.93 26.5487C119.769 26.8382 119.688 27.1829 119.688 27.5829ZM128.901 25.004V25.698H125.619V25.004H128.901ZM126.645 23.3563H127.446V30.0858C127.446 30.3723 127.495 30.5977 127.594 30.7618C127.692 30.923 127.821 31.0379 127.979 31.1066C128.137 31.1723 128.306 31.2051 128.485 31.2051C128.589 31.2051 128.679 31.1991 128.753 31.1872C128.828 31.1723 128.894 31.1573 128.95 31.1424L129.121 31.8633C129.043 31.8931 128.947 31.92 128.834 31.9438C128.721 31.9707 128.58 31.9841 128.413 31.9841C128.121 31.9841 127.839 31.92 127.567 31.7916C127.298 31.6633 127.077 31.4722 126.904 31.2185C126.731 30.9648 126.645 30.6499 126.645 30.2738V23.3563ZM135.209 26.5128L134.479 26.7188C134.407 26.5128 134.306 26.3263 134.174 26.1591C134.043 25.992 133.871 25.8591 133.659 25.7606C133.451 25.6621 133.191 25.6129 132.88 25.6129C132.415 25.6129 132.033 25.7233 131.734 25.9442C131.436 26.1651 131.286 26.4502 131.286 26.7994C131.286 27.0949 131.388 27.3352 131.591 27.5202C131.797 27.7023 132.113 27.8471 132.54 27.9545L133.579 28.2097C134.155 28.35 134.586 28.5724 134.873 28.8769C135.162 29.1813 135.307 29.5634 135.307 30.0231C135.307 30.4111 135.2 30.7559 134.985 31.0573C134.77 31.3588 134.47 31.5961 134.085 31.7692C133.703 31.9394 133.259 32.0244 132.755 32.0244C132.083 32.0244 131.53 31.8737 131.094 31.5722C130.658 31.2678 130.379 30.829 130.257 30.2559L131.022 30.0678C131.121 30.4768 131.313 30.7857 131.6 30.9947C131.889 31.2036 132.27 31.3081 132.742 31.3081C133.27 31.3081 133.692 31.1902 134.009 30.9544C134.325 30.7156 134.483 30.4171 134.483 30.0589C134.483 29.7813 134.391 29.5485 134.206 29.3604C134.021 29.1694 133.74 29.0291 133.364 28.9396L132.24 28.6709C131.643 28.5276 131.201 28.3008 130.915 27.9904C130.628 27.6799 130.485 27.2949 130.485 26.8352C130.485 26.4561 130.588 26.1233 130.794 25.8368C131 25.5472 131.283 25.3204 131.645 25.1562C132.006 24.992 132.418 24.9099 132.88 24.9099C133.51 24.9099 134.013 25.0532 134.389 25.3398C134.768 25.6233 135.041 26.0144 135.209 26.5128Z" fill="#75898C"/>
<rect x="527.566" y="21.5771" width="12.6082" height="12.6082" rx="6.30409" fill="#67D1E3"/>
<path d="M550.275 25.3357C550.226 24.8499 550.012 24.4636 549.631 24.1766C549.251 23.8897 548.772 23.7462 548.195 23.7462C547.789 23.7462 547.431 23.8158 547.121 23.955C546.814 24.0942 546.573 24.2874 546.397 24.5346C546.224 24.7789 546.137 25.0573 546.137 25.3698C546.137 25.5999 546.187 25.8016 546.286 25.9749C546.385 26.1482 546.519 26.2974 546.687 26.4224C546.857 26.5445 547.045 26.6496 547.249 26.7377C547.456 26.8258 547.665 26.8996 547.876 26.9593L548.796 27.2235C549.074 27.3002 549.353 27.3982 549.631 27.5175C549.91 27.6368 550.164 27.7874 550.394 27.9692C550.627 28.1482 550.813 28.3684 550.952 28.6297C551.094 28.8883 551.165 29.1993 551.165 29.563C551.165 30.0289 551.045 30.4479 550.803 30.8201C550.562 31.1922 550.215 31.4877 549.763 31.7064C549.312 31.9224 548.77 32.0303 548.14 32.0303C547.546 32.0303 547.03 31.9323 546.593 31.7363C546.155 31.5374 545.812 31.2633 545.562 30.9138C545.312 30.5644 545.171 30.1596 545.14 29.6993H545.958C545.986 30.0431 546.1 30.3343 546.299 30.5729C546.498 30.8116 546.756 30.9934 547.074 31.1184C547.393 31.2405 547.748 31.3016 548.14 31.3016C548.574 31.3016 548.961 31.2292 549.299 31.0843C549.64 30.9366 549.907 30.732 550.1 30.4707C550.296 30.2064 550.394 29.8996 550.394 29.5502C550.394 29.2547 550.317 29.0076 550.164 28.8087C550.01 28.607 549.796 28.438 549.52 28.3016C549.248 28.1653 548.931 28.0445 548.57 27.9394L547.526 27.6326C546.841 27.428 546.31 27.1454 545.932 26.7846C545.555 26.4238 545.366 25.9636 545.366 25.4039C545.366 24.9351 545.491 24.5232 545.741 24.1681C545.993 23.8101 546.334 23.5317 546.763 23.3329C547.195 23.1312 547.68 23.0303 548.216 23.0303C548.759 23.0303 549.239 23.1297 549.657 23.3286C550.074 23.5275 550.405 23.8016 550.65 24.1511C550.897 24.4976 551.029 24.8925 551.046 25.3357H550.275ZM555.572 32.0175C554.961 32.0175 554.432 31.8755 553.986 31.5914C553.54 31.3045 553.195 30.9082 552.951 30.4025C552.709 29.8939 552.589 29.3087 552.589 28.6468C552.589 27.9877 552.709 27.4025 552.951 26.8911C553.195 26.3769 553.532 25.9749 553.961 25.6851C554.393 25.3925 554.891 25.2462 555.456 25.2462C555.812 25.2462 556.154 25.3116 556.483 25.4422C556.813 25.5701 557.108 25.7675 557.37 26.0346C557.634 26.2988 557.843 26.6326 557.996 27.036C558.15 27.4366 558.226 27.911 558.226 28.4593V28.8343H553.113V28.1653H557.451C557.451 27.7448 557.366 27.367 557.195 27.0317C557.028 26.6937 556.793 26.4266 556.492 26.2306C556.194 26.0346 555.849 25.9366 555.456 25.9366C555.042 25.9366 554.677 26.0474 554.361 26.2689C554.046 26.4905 553.799 26.7832 553.62 27.1468C553.444 27.5104 553.354 27.9082 553.351 28.34V28.7405C553.351 29.2604 553.441 29.715 553.62 30.1042C553.802 30.4905 554.059 30.7903 554.391 31.0033C554.724 31.2164 555.117 31.3229 555.572 31.3229C555.881 31.3229 556.153 31.2746 556.385 31.178C556.621 31.0814 556.819 30.9522 556.978 30.7903C557.14 30.6255 557.262 30.4451 557.344 30.2491L558.064 30.4834C557.965 30.759 557.802 31.0133 557.574 31.2462C557.35 31.4792 557.069 31.6667 556.731 31.8087C556.395 31.9479 556.009 32.0175 555.572 32.0175ZM562.455 32.0175C561.869 32.0175 561.36 31.8712 560.925 31.5786C560.493 31.286 560.158 30.8854 559.919 30.3769C559.681 29.8684 559.561 29.2888 559.561 28.6383C559.561 27.982 559.682 27.3982 559.923 26.8868C560.168 26.3755 560.506 25.9749 560.938 25.6851C561.369 25.3925 561.871 25.2462 562.442 25.2462C562.879 25.2462 563.276 25.3314 563.631 25.5019C563.986 25.6695 564.279 25.9067 564.509 26.2136C564.742 26.5175 564.888 26.8726 564.948 27.2789H564.181C564.101 26.9096 563.909 26.5942 563.605 26.3329C563.304 26.0687 562.921 25.9366 562.455 25.9366C562.037 25.9366 561.668 26.0502 561.347 26.2775C561.026 26.5019 560.774 26.8158 560.593 27.2192C560.414 27.6198 560.324 28.0843 560.324 28.6127C560.324 29.1439 560.412 29.6141 560.588 30.0232C560.764 30.4295 561.012 30.7476 561.33 30.9778C561.651 31.2079 562.026 31.3229 562.455 31.3229C562.744 31.3229 563.009 31.2689 563.247 31.161C563.489 31.0502 563.691 30.8939 563.852 30.6922C564.017 30.4905 564.128 30.2505 564.185 29.9721H564.952C564.895 30.367 564.754 30.7192 564.53 31.0289C564.308 31.3357 564.02 31.5772 563.665 31.7533C563.313 31.9295 562.909 32.0175 562.455 32.0175ZM569.156 25.3357V25.9962H566.032V25.3357H569.156ZM567.008 23.7675H567.771V30.1724C567.771 30.4451 567.818 30.6596 567.911 30.8158C568.005 30.9692 568.127 31.0786 568.278 31.1439C568.428 31.2064 568.589 31.2377 568.759 31.2377C568.859 31.2377 568.944 31.232 569.015 31.2207C569.086 31.2064 569.149 31.1922 569.203 31.178L569.365 31.8641C569.291 31.8925 569.2 31.9181 569.092 31.9408C568.984 31.9664 568.85 31.9792 568.691 31.9792C568.413 31.9792 568.144 31.9181 567.886 31.7959C567.63 31.6738 567.42 31.492 567.255 31.2505C567.09 31.009 567.008 30.7093 567.008 30.3513V23.7675ZM570.887 31.8812V25.3357H571.65V31.8812H570.887ZM571.275 24.2107C571.118 24.2107 570.985 24.1582 570.874 24.053C570.763 23.9451 570.708 23.8158 570.708 23.6653C570.708 23.5147 570.763 23.3868 570.874 23.2817C570.985 23.1738 571.118 23.1198 571.275 23.1198C571.431 23.1198 571.564 23.1738 571.675 23.2817C571.786 23.3868 571.841 23.5147 571.841 23.6653C571.841 23.8158 571.786 23.9451 571.675 24.053C571.564 24.1582 571.431 24.2107 571.275 24.2107ZM576.2 32.0175C575.634 32.0175 575.134 31.8741 574.7 31.5871C574.268 31.3002 573.93 30.9039 573.686 30.3982C573.441 29.8897 573.319 29.303 573.319 28.6383C573.319 27.9678 573.441 27.3783 573.686 26.8698C573.93 26.3584 574.268 25.9607 574.7 25.6766C575.134 25.3897 575.634 25.2462 576.2 25.2462C576.765 25.2462 577.264 25.3897 577.695 25.6766C578.127 25.9636 578.465 26.3613 578.71 26.8698C578.957 27.3783 579.08 27.9678 579.08 28.6383C579.08 29.303 578.958 29.8897 578.714 30.3982C578.47 30.9039 578.13 31.3002 577.695 31.5871C577.264 31.8741 576.765 32.0175 576.2 32.0175ZM576.2 31.3229C576.654 31.3229 577.039 31.2008 577.355 30.9564C577.67 30.7121 577.909 30.3868 578.07 29.9806C578.235 29.5743 578.318 29.1269 578.318 28.6383C578.318 28.1496 578.235 27.7008 578.07 27.2917C577.909 26.8826 577.67 26.5545 577.355 26.3073C577.039 26.0601 576.654 25.9366 576.2 25.9366C575.748 25.9366 575.363 26.0601 575.045 26.3073C574.73 26.5545 574.49 26.8826 574.325 27.2917C574.163 27.7008 574.082 28.1496 574.082 28.6383C574.082 29.1269 574.163 29.5743 574.325 29.9806C574.49 30.3868 574.73 30.7121 575.045 30.9564C575.36 31.2008 575.745 31.3229 576.2 31.3229ZM581.504 27.7903V31.8812H580.746V25.3357H581.483V26.3627H581.551C581.704 26.0275 581.943 25.759 582.267 25.5573C582.594 25.3528 582.997 25.2505 583.477 25.2505C583.917 25.2505 584.304 25.3428 584.636 25.5275C584.971 25.7093 585.231 25.9778 585.416 26.3329C585.604 26.688 585.697 27.1241 585.697 27.6411V31.8812H584.939V27.688C584.939 27.1511 584.788 26.7263 584.487 26.4138C584.189 26.1013 583.788 25.9451 583.285 25.9451C582.942 25.9451 582.636 26.0189 582.369 26.1667C582.102 26.3144 581.89 26.5275 581.734 26.8059C581.581 27.0814 581.504 27.4096 581.504 27.7903ZM590.699 23.8698V23.1539H597.027V23.8698H594.262V31.8812H593.465V23.8698H590.699ZM599.601 32.0303C599.206 32.0303 598.845 31.9536 598.519 31.8002C598.192 31.6439 597.932 31.4195 597.739 31.1269C597.546 30.8314 597.449 30.4735 597.449 30.053C597.449 29.7292 597.51 29.4564 597.632 29.2349C597.754 29.0133 597.928 28.8314 598.152 28.6894C598.377 28.5474 598.642 28.4351 598.949 28.3528C599.256 28.2704 599.594 28.2064 599.963 28.161C600.33 28.1155 600.639 28.0758 600.892 28.0417C601.148 28.0076 601.343 27.9536 601.476 27.8797C601.61 27.8059 601.676 27.6866 601.676 27.5218V27.3684C601.676 26.9224 601.543 26.5715 601.276 26.3158C601.012 26.0573 600.631 25.928 600.134 25.928C599.662 25.928 599.277 26.0317 598.979 26.2391C598.683 26.4465 598.476 26.6908 598.357 26.9721L597.637 26.7121C597.784 26.3542 597.989 26.0687 598.25 25.8556C598.512 25.6397 598.804 25.4849 599.128 25.3911C599.452 25.2945 599.78 25.2462 600.112 25.2462C600.362 25.2462 600.622 25.2789 600.892 25.3442C601.165 25.4096 601.418 25.5232 601.651 25.6851C601.884 25.8442 602.073 26.0672 602.218 26.3542C602.362 26.6383 602.435 26.9991 602.435 27.4366V31.8812H601.676V30.8457H601.629C601.539 31.0388 601.404 31.2263 601.225 31.4082C601.046 31.59 600.821 31.7391 600.551 31.8556C600.281 31.9721 599.965 32.0303 599.601 32.0303ZM599.703 31.3357C600.107 31.3357 600.456 31.2462 600.752 31.0672C601.047 30.8883 601.274 30.6511 601.433 30.3556C601.595 30.0573 601.676 29.7292 601.676 29.3712V28.4252C601.619 28.4792 601.524 28.5275 601.391 28.5701C601.26 28.6127 601.108 28.6511 600.935 28.6851C600.764 28.7164 600.594 28.7434 600.423 28.7661C600.253 28.7888 600.1 28.8087 599.963 28.8258C599.594 28.8712 599.279 28.9422 599.017 29.0388C598.756 29.1354 598.556 29.2689 598.416 29.4394C598.277 29.607 598.208 29.8229 598.208 30.0871C598.208 30.4849 598.35 30.7931 598.634 31.0118C598.918 31.2278 599.274 31.3357 599.703 31.3357ZM605.143 29.4096L605.134 28.4167H605.305L608.373 25.3357H609.332L606.302 28.3698L606.234 28.3826L605.143 29.4096ZM604.453 31.8812V23.1539H605.211V31.8812H604.453ZM608.531 31.8812L605.872 28.5189L606.417 27.9948L609.502 31.8812H608.531ZM613.134 32.0175C612.523 32.0175 611.995 31.8755 611.549 31.5914C611.103 31.3045 610.758 30.9082 610.513 30.4025C610.272 29.8939 610.151 29.3087 610.151 28.6468C610.151 27.9877 610.272 27.4025 610.513 26.8911C610.758 26.3769 611.094 25.9749 611.523 25.6851C611.955 25.3925 612.454 25.2462 613.019 25.2462C613.374 25.2462 613.716 25.3116 614.046 25.4422C614.376 25.5701 614.671 25.7675 614.932 26.0346C615.197 26.2988 615.405 26.6326 615.559 27.036C615.712 27.4366 615.789 27.911 615.789 28.4593V28.8343H610.675V28.1653H615.013C615.013 27.7448 614.928 27.367 614.758 27.0317C614.59 26.6937 614.356 26.4266 614.055 26.2306C613.756 26.0346 613.411 25.9366 613.019 25.9366C612.604 25.9366 612.239 26.0474 611.924 26.2689C611.608 26.4905 611.361 26.7832 611.182 27.1468C611.006 27.5104 610.917 27.9082 610.914 28.34V28.7405C610.914 29.2604 611.003 29.715 611.182 30.1042C611.364 30.4905 611.621 30.7903 611.954 31.0033C612.286 31.2164 612.68 31.3229 613.134 31.3229C613.444 31.3229 613.715 31.2746 613.948 31.178C614.184 31.0814 614.381 30.9522 614.54 30.7903C614.702 30.6255 614.824 30.4451 614.907 30.2491L615.627 30.4834C615.528 30.759 615.364 31.0133 615.137 31.2462C614.912 31.4792 614.631 31.6667 614.293 31.8087C613.958 31.9479 613.572 32.0175 613.134 32.0175ZM618.219 27.7903V31.8812H617.46V25.3357H618.198V26.3627H618.266C618.419 26.0275 618.658 25.759 618.982 25.5573C619.308 25.3528 619.712 25.2505 620.192 25.2505C620.632 25.2505 621.019 25.3428 621.351 25.5275C621.686 25.7093 621.946 25.9778 622.131 26.3329C622.318 26.688 622.412 27.1241 622.412 27.6411V31.8812H621.654V27.688C621.654 27.1511 621.503 26.7263 621.202 26.4138C620.904 26.1013 620.503 25.9451 620 25.9451C619.656 25.9451 619.351 26.0189 619.084 26.1667C618.817 26.3144 618.605 26.5275 618.449 26.8059C618.296 27.0814 618.219 27.4096 618.219 27.7903Z" fill="#043740"/>
<rect x="641.188" y="21.5771" width="12.6082" height="12.6082" rx="6.30409" fill="#043740"/>
<path d="M663.896 25.3357C663.847 24.8499 663.633 24.4636 663.252 24.1766C662.872 23.8897 662.393 23.7462 661.816 23.7462C661.41 23.7462 661.052 23.8158 660.742 23.955C660.436 24.0942 660.194 24.2874 660.018 24.5346C659.845 24.7789 659.758 25.0573 659.758 25.3698C659.758 25.5999 659.808 25.8016 659.907 25.9749C660.007 26.1482 660.14 26.2974 660.308 26.4224C660.478 26.5445 660.666 26.6496 660.87 26.7377C661.078 26.8258 661.286 26.8996 661.497 26.9593L662.417 27.2235C662.695 27.3002 662.974 27.3982 663.252 27.5175C663.531 27.6368 663.785 27.7874 664.015 27.9692C664.248 28.1482 664.434 28.3684 664.573 28.6297C664.715 28.8883 664.786 29.1993 664.786 29.563C664.786 30.0289 664.666 30.4479 664.424 30.8201C664.183 31.1922 663.836 31.4877 663.384 31.7064C662.933 31.9224 662.392 32.0303 661.761 32.0303C661.167 32.0303 660.651 31.9323 660.214 31.7363C659.776 31.5374 659.433 31.2633 659.183 30.9138C658.933 30.5644 658.792 30.1596 658.761 29.6993H659.579C659.607 30.0431 659.721 30.3343 659.92 30.5729C660.119 30.8116 660.377 30.9934 660.695 31.1184C661.014 31.2405 661.369 31.3016 661.761 31.3016C662.195 31.3016 662.582 31.2292 662.92 31.0843C663.261 30.9366 663.528 30.732 663.721 30.4707C663.917 30.2064 664.015 29.8996 664.015 29.5502C664.015 29.2547 663.938 29.0076 663.785 28.8087C663.632 28.607 663.417 28.438 663.142 28.3016C662.869 28.1653 662.552 28.0445 662.191 27.9394L661.147 27.6326C660.463 27.428 659.931 27.1454 659.553 26.7846C659.176 26.4238 658.987 25.9636 658.987 25.4039C658.987 24.9351 659.112 24.5232 659.362 24.1681C659.615 23.8101 659.955 23.5317 660.384 23.3329C660.816 23.1312 661.301 23.0303 661.838 23.0303C662.38 23.0303 662.86 23.1297 663.278 23.3286C663.695 23.5275 664.026 23.8016 664.271 24.1511C664.518 24.4976 664.65 24.8925 664.667 25.3357H663.896ZM669.193 32.0175C668.582 32.0175 668.053 31.8755 667.607 31.5914C667.161 31.3045 666.816 30.9082 666.572 30.4025C666.33 29.8939 666.21 29.3087 666.21 28.6468C666.21 27.9877 666.33 27.4025 666.572 26.8911C666.816 26.3769 667.153 25.9749 667.582 25.6851C668.014 25.3925 668.512 25.2462 669.078 25.2462C669.433 25.2462 669.775 25.3116 670.105 25.4422C670.434 25.5701 670.73 25.7675 670.991 26.0346C671.255 26.2988 671.464 26.6326 671.617 27.036C671.771 27.4366 671.847 27.911 671.847 28.4593V28.8343H666.734V28.1653H671.072C671.072 27.7448 670.987 27.367 670.816 27.0317C670.649 26.6937 670.414 26.4266 670.113 26.2306C669.815 26.0346 669.47 25.9366 669.078 25.9366C668.663 25.9366 668.298 26.0474 667.982 26.2689C667.667 26.4905 667.42 26.7832 667.241 27.1468C667.065 27.5104 666.975 27.9082 666.972 28.34V28.7405C666.972 29.2604 667.062 29.715 667.241 30.1042C667.423 30.4905 667.68 30.7903 668.012 31.0033C668.345 31.2164 668.738 31.3229 669.193 31.3229C669.502 31.3229 669.774 31.2746 670.007 31.178C670.242 31.0814 670.44 30.9522 670.599 30.7903C670.761 30.6255 670.883 30.4451 670.965 30.2491L671.686 30.4834C671.586 30.759 671.423 31.0133 671.195 31.2462C670.971 31.4792 670.69 31.6667 670.352 31.8087C670.017 31.9479 669.63 32.0175 669.193 32.0175ZM676.076 32.0175C675.491 32.0175 674.981 31.8712 674.546 31.5786C674.114 31.286 673.779 30.8854 673.54 30.3769C673.302 29.8684 673.182 29.2888 673.182 28.6383C673.182 27.982 673.303 27.3982 673.545 26.8868C673.789 26.3755 674.127 25.9749 674.559 25.6851C674.991 25.3925 675.492 25.2462 676.063 25.2462C676.501 25.2462 676.897 25.3314 677.252 25.5019C677.607 25.6695 677.9 25.9067 678.13 26.2136C678.363 26.5175 678.509 26.8726 678.569 27.2789H677.802C677.722 26.9096 677.53 26.5942 677.226 26.3329C676.925 26.0687 676.542 25.9366 676.076 25.9366C675.658 25.9366 675.289 26.0502 674.968 26.2775C674.647 26.5019 674.395 26.8158 674.214 27.2192C674.035 27.6198 673.945 28.0843 673.945 28.6127C673.945 29.1439 674.033 29.6141 674.209 30.0232C674.385 30.4295 674.633 30.7476 674.951 30.9778C675.272 31.2079 675.647 31.3229 676.076 31.3229C676.366 31.3229 676.63 31.2689 676.868 31.161C677.11 31.0502 677.312 30.8939 677.474 30.6922C677.638 30.4905 677.749 30.2505 677.806 29.9721H678.573C678.516 30.367 678.376 30.7192 678.151 31.0289C677.93 31.3357 677.641 31.5772 677.286 31.7533C676.934 31.9295 676.53 32.0175 676.076 32.0175ZM682.777 25.3357V25.9962H679.653V25.3357H682.777ZM680.629 23.7675H681.392V30.1724C681.392 30.4451 681.439 30.6596 681.532 30.8158C681.626 30.9692 681.748 31.0786 681.899 31.1439C682.05 31.2064 682.21 31.2377 682.381 31.2377C682.48 31.2377 682.565 31.232 682.636 31.2207C682.707 31.2064 682.77 31.1922 682.824 31.178L682.986 31.8641C682.912 31.8925 682.821 31.9181 682.713 31.9408C682.605 31.9664 682.471 31.9792 682.312 31.9792C682.034 31.9792 681.765 31.9181 681.507 31.7959C681.251 31.6738 681.041 31.492 680.876 31.2505C680.711 31.009 680.629 30.7093 680.629 30.3513V23.7675ZM684.508 31.8812V25.3357H685.271V31.8812H684.508ZM684.896 24.2107C684.74 24.2107 684.606 24.1582 684.495 24.053C684.384 23.9451 684.329 23.8158 684.329 23.6653C684.329 23.5147 684.384 23.3868 684.495 23.2817C684.606 23.1738 684.74 23.1198 684.896 23.1198C685.052 23.1198 685.186 23.1738 685.296 23.2817C685.407 23.3868 685.463 23.5147 685.463 23.6653C685.463 23.8158 685.407 23.9451 685.296 24.053C685.186 24.1582 685.052 24.2107 684.896 24.2107ZM689.821 32.0175C689.256 32.0175 688.756 31.8741 688.321 31.5871C687.889 31.3002 687.551 30.9039 687.307 30.3982C687.062 29.8897 686.94 29.303 686.94 28.6383C686.94 27.9678 687.062 27.3783 687.307 26.8698C687.551 26.3584 687.889 25.9607 688.321 25.6766C688.756 25.3897 689.256 25.2462 689.821 25.2462C690.386 25.2462 690.885 25.3897 691.317 25.6766C691.748 25.9636 692.086 26.3613 692.331 26.8698C692.578 27.3783 692.702 27.9678 692.702 28.6383C692.702 29.303 692.579 29.8897 692.335 30.3982C692.091 30.9039 691.751 31.3002 691.317 31.5871C690.885 31.8741 690.386 32.0175 689.821 32.0175ZM689.821 31.3229C690.275 31.3229 690.66 31.2008 690.976 30.9564C691.291 30.7121 691.53 30.3868 691.692 29.9806C691.856 29.5743 691.939 29.1269 691.939 28.6383C691.939 28.1496 691.856 27.7008 691.692 27.2917C691.53 26.8826 691.291 26.5545 690.976 26.3073C690.66 26.0601 690.275 25.9366 689.821 25.9366C689.369 25.9366 688.984 26.0601 688.666 26.3073C688.351 26.5545 688.111 26.8826 687.946 27.2917C687.784 27.7008 687.703 28.1496 687.703 28.6383C687.703 29.1269 687.784 29.5743 687.946 29.9806C688.111 30.3868 688.351 30.7121 688.666 30.9564C688.981 31.2008 689.366 31.3229 689.821 31.3229ZM695.125 27.7903V31.8812H694.367V25.3357H695.104V26.3627H695.172C695.325 26.0275 695.564 25.759 695.888 25.5573C696.215 25.3528 696.618 25.2505 697.098 25.2505C697.539 25.2505 697.925 25.3428 698.257 25.5275C698.593 25.7093 698.852 25.9778 699.037 26.3329C699.225 26.688 699.318 27.1241 699.318 27.6411V31.8812H698.56V27.688C698.56 27.1511 698.409 26.7263 698.108 26.4138C697.81 26.1013 697.409 25.9451 696.906 25.9451C696.563 25.9451 696.257 26.0189 695.99 26.1667C695.723 26.3144 695.512 26.5275 695.355 26.8059C695.202 27.0814 695.125 27.4096 695.125 27.7903ZM704.849 31.8812V23.1539H707.793C708.361 23.1539 708.834 23.2533 709.212 23.4522C709.593 23.6511 709.878 23.9224 710.069 24.2661C710.259 24.6099 710.354 25.0005 710.354 25.438C710.354 25.8016 710.293 26.1127 710.171 26.3712C710.049 26.6297 709.883 26.8386 709.672 26.9976C709.462 27.1567 709.228 27.2718 708.969 27.3428V27.411C709.251 27.4309 709.523 27.5303 709.787 27.7093C710.052 27.8854 710.269 28.1326 710.439 28.4508C710.61 28.7689 710.695 29.1496 710.695 29.5928C710.695 30.0332 710.597 30.4266 710.401 30.7732C710.205 31.117 709.904 31.3883 709.498 31.5871C709.094 31.7832 708.58 31.8812 707.955 31.8812H704.849ZM705.645 31.1653H707.955C708.628 31.1653 709.126 31.0161 709.447 30.7178C709.77 30.4195 709.932 30.0445 709.932 29.5928C709.932 29.2604 709.851 28.9593 709.689 28.6894C709.53 28.4167 709.305 28.2008 709.012 28.0417C708.722 27.8826 708.381 27.803 707.989 27.803H705.645V31.1653ZM705.645 27.0957H707.866C708.209 27.0957 708.51 27.0246 708.769 26.8826C709.028 26.7405 709.229 26.5445 709.374 26.2945C709.519 26.0445 709.591 25.759 709.591 25.438C709.591 24.9749 709.441 24.5985 709.14 24.3087C708.839 24.0161 708.39 23.8698 707.793 23.8698H705.645V27.0957ZM715.004 32.0175C714.439 32.0175 713.939 31.8741 713.504 31.5871C713.073 31.3002 712.735 30.9039 712.49 30.3982C712.246 29.8897 712.124 29.303 712.124 28.6383C712.124 27.9678 712.246 27.3783 712.49 26.8698C712.735 26.3584 713.073 25.9607 713.504 25.6766C713.939 25.3897 714.439 25.2462 715.004 25.2462C715.57 25.2462 716.068 25.3897 716.5 25.6766C716.932 25.9636 717.27 26.3613 717.514 26.8698C717.762 27.3783 717.885 27.9678 717.885 28.6383C717.885 29.303 717.763 29.8897 717.519 30.3982C717.274 30.9039 716.935 31.3002 716.5 31.5871C716.068 31.8741 715.57 32.0175 715.004 32.0175ZM715.004 31.3229C715.459 31.3229 715.844 31.2008 716.159 30.9564C716.475 30.7121 716.713 30.3868 716.875 29.9806C717.04 29.5743 717.122 29.1269 717.122 28.6383C717.122 28.1496 717.04 27.7008 716.875 27.2917C716.713 26.8826 716.475 26.5545 716.159 26.3073C715.844 26.0601 715.459 25.9366 715.004 25.9366C714.553 25.9366 714.168 26.0601 713.85 26.3073C713.534 26.5545 713.294 26.8826 713.129 27.2917C712.968 27.7008 712.887 28.1496 712.887 28.6383C712.887 29.1269 712.968 29.5743 713.129 29.9806C713.294 30.3868 713.534 30.7121 713.85 30.9564C714.165 31.2008 714.55 31.3229 715.004 31.3229ZM722.094 32.0175C721.529 32.0175 721.029 31.8741 720.594 31.5871C720.162 31.3002 719.824 30.9039 719.58 30.3982C719.336 29.8897 719.214 29.303 719.214 28.6383C719.214 27.9678 719.336 27.3783 719.58 26.8698C719.824 26.3584 720.162 25.9607 720.594 25.6766C721.029 25.3897 721.529 25.2462 722.094 25.2462C722.66 25.2462 723.158 25.3897 723.59 25.6766C724.022 25.9636 724.36 26.3613 724.604 26.8698C724.851 27.3783 724.975 27.9678 724.975 28.6383C724.975 29.303 724.853 29.8897 724.608 30.3982C724.364 30.9039 724.025 31.3002 723.59 31.5871C723.158 31.8741 722.66 32.0175 722.094 32.0175ZM722.094 31.3229C722.549 31.3229 722.934 31.2008 723.249 30.9564C723.564 30.7121 723.803 30.3868 723.965 29.9806C724.13 29.5743 724.212 29.1269 724.212 28.6383C724.212 28.1496 724.13 27.7008 723.965 27.2917C723.803 26.8826 723.564 26.5545 723.249 26.3073C722.934 26.0601 722.549 25.9366 722.094 25.9366C721.643 25.9366 721.258 26.0601 720.939 26.3073C720.624 26.5545 720.384 26.8826 720.219 27.2917C720.057 27.7008 719.976 28.1496 719.976 28.6383C719.976 29.1269 720.057 29.5743 720.219 29.9806C720.384 30.3868 720.624 30.7121 720.939 30.9564C721.255 31.2008 721.64 31.3229 722.094 31.3229ZM727.33 29.4096L727.322 28.4167H727.492L730.561 25.3357H731.519L728.49 28.3698L728.421 28.3826L727.33 29.4096ZM726.64 31.8812V23.1539H727.399V31.8812H726.64ZM730.718 31.8812L728.059 28.5189L728.605 27.9948L731.69 31.8812H730.718ZM735.322 32.0175C734.711 32.0175 734.182 31.8755 733.736 31.5914C733.29 31.3045 732.945 30.9082 732.701 30.4025C732.459 29.8939 732.339 29.3087 732.339 28.6468C732.339 27.9877 732.459 27.4025 732.701 26.8911C732.945 26.3769 733.282 25.9749 733.711 25.6851C734.143 25.3925 734.641 25.2462 735.206 25.2462C735.562 25.2462 735.904 25.3116 736.233 25.4422C736.563 25.5701 736.858 25.7675 737.12 26.0346C737.384 26.2988 737.593 26.6326 737.746 27.036C737.9 27.4366 737.976 27.911 737.976 28.4593V28.8343H732.863V28.1653H737.201C737.201 27.7448 737.116 27.367 736.945 27.0317C736.778 26.6937 736.543 26.4266 736.242 26.2306C735.944 26.0346 735.599 25.9366 735.206 25.9366C734.792 25.9366 734.427 26.0474 734.111 26.2689C733.796 26.4905 733.549 26.7832 733.37 27.1468C733.194 27.5104 733.104 27.9082 733.101 28.34V28.7405C733.101 29.2604 733.191 29.715 733.37 30.1042C733.552 30.4905 733.809 30.7903 734.141 31.0033C734.474 31.2164 734.867 31.3229 735.322 31.3229C735.631 31.3229 735.903 31.2746 736.135 31.178C736.371 31.0814 736.569 30.9522 736.728 30.7903C736.89 30.6255 737.012 30.4451 737.094 30.2491L737.814 30.4834C737.715 30.759 737.552 31.0133 737.324 31.2462C737.1 31.4792 736.819 31.6667 736.481 31.8087C736.145 31.9479 735.759 32.0175 735.322 32.0175ZM742.004 32.0175C741.468 32.0175 740.997 31.8755 740.594 31.5914C740.191 31.3073 739.875 30.911 739.648 30.4025C739.423 29.8939 739.311 29.3016 739.311 28.6255C739.311 27.9522 739.423 27.3627 739.648 26.857C739.875 26.3485 740.192 25.9536 740.598 25.6724C741.004 25.3883 741.477 25.2462 742.017 25.2462C742.415 25.2462 742.746 25.3172 743.01 25.4593C743.274 25.5985 743.486 25.7718 743.645 25.9792C743.804 26.1866 743.928 26.3883 744.016 26.5843H744.084V23.1539H744.847V31.8812H744.105V30.6667H744.016C743.928 30.8655 743.803 31.0701 743.641 31.2803C743.479 31.4877 743.264 31.6624 742.997 31.8045C742.733 31.9465 742.402 32.0175 742.004 32.0175ZM742.094 31.3229C742.517 31.3229 742.878 31.2079 743.176 30.9778C743.475 30.7448 743.702 30.4252 743.858 30.0189C744.017 29.6099 744.097 29.1411 744.097 28.6127C744.097 28.09 744.019 27.6283 743.862 27.2278C743.706 26.8243 743.479 26.509 743.181 26.2817C742.882 26.0516 742.52 25.9366 742.094 25.9366C741.656 25.9366 741.287 26.0559 740.986 26.2945C740.688 26.5303 740.46 26.8499 740.304 27.2533C740.151 27.6567 740.074 28.1099 740.074 28.6127C740.074 29.1212 740.152 29.58 740.308 29.9891C740.465 30.3982 740.692 30.7235 740.99 30.965C741.291 31.2036 741.659 31.3229 742.094 31.3229Z" fill="#043740"/>
<rect x="96.6729" y="270.109" width="17.0279" height="75" fill="#67D1E3"/>
<rect x="113.701" y="248.109" width="17.0279" height="97" fill="#043740"/>
<rect x="151.742" y="271.109" width="17.0279" height="74" fill="#67D1E3"/>
<rect x="168.771" y="201.109" width="17.0279" height="144" fill="#043740"/>
<rect x="206.811" y="240.041" width="17.0279" height="105.068" fill="#67D1E3"/>
<rect x="223.84" y="256.852" width="17.0279" height="88.2573" fill="#043740"/>
<rect x="261.881" y="232.686" width="17.0279" height="112.423" fill="#67D1E3"/>
<rect x="278.91" y="177" width="17.0279" height="168.109" fill="#043740"/>
<rect x="316.949" y="283.119" width="17.0279" height="61.9903" fill="#67D1E3"/>
<rect x="333.979" y="215.875" width="17.0279" height="129.234" fill="#043740"/>
<rect x="372.02" y="201.166" width="17.0279" height="143.943" fill="#67D1E3"/>
<rect x="389.049" y="226.382" width="17.0279" height="118.727" fill="#043740"/>
<rect x="427.088" y="201.166" width="17.0279" height="143.943" fill="#67D1E3"/>
<rect x="444.117" y="170.696" width="17.0279" height="174.413" fill="#043740"/>
<rect x="482.158" y="227.433" width="17.0279" height="117.676" fill="#67D1E3"/>
<rect x="499.188" y="139.175" width="17.0279" height="205.934" fill="#043740"/>
<rect x="537.229" y="226.382" width="17.0279" height="118.727" fill="#67D1E3"/>
<rect x="554.258" y="162.29" width="17.0279" height="182.819" fill="#043740"/>
<rect x="592.297" y="201.166" width="17.0279" height="143.943" fill="#67D1E3"/>
<rect x="609.326" y="232.686" width="17.0279" height="112.423" fill="#043740"/>
<rect x="647.367" y="245.294" width="17.0279" height="99.8148" fill="#67D1E3"/>
<rect x="664.396" y="189.608" width="17.0279" height="155.501" fill="#043740"/>
<rect x="702.436" y="245.294" width="17.0279" height="99.8148" fill="#67D1E3"/>
<rect x="719.465" y="189.608" width="17.0279" height="155.501" fill="#043740"/>
<path d="M114.744 358.948V368.118H113.907V359.826H113.853L111.704 361.254V360.386L113.871 358.948H114.744Z" fill="#75898C"/>
<path d="M165.945 368.118V367.504L168.94 364.138C169.331 363.696 169.646 363.318 169.885 363.005C170.123 362.691 170.297 362.402 170.404 362.136C170.514 361.871 170.57 361.594 170.57 361.308C170.57 360.959 170.488 360.654 170.323 360.394C170.162 360.132 169.94 359.927 169.656 359.781C169.373 359.635 169.053 359.562 168.698 359.562C168.322 359.562 167.992 359.642 167.709 359.803C167.428 359.965 167.21 360.186 167.055 360.466C166.9 360.747 166.822 361.069 166.822 361.433H166.021C166.021 360.926 166.137 360.477 166.37 360.086C166.606 359.692 166.927 359.383 167.333 359.159C167.742 358.935 168.204 358.823 168.721 358.823C169.231 358.823 169.685 358.933 170.082 359.154C170.479 359.372 170.791 359.669 171.017 360.045C171.244 360.421 171.358 360.842 171.358 361.308C171.358 361.645 171.298 361.972 171.179 362.288C171.062 362.605 170.861 362.957 170.574 363.345C170.288 363.733 169.891 364.208 169.383 364.769L167.109 367.307V367.366H171.644V368.118H165.945Z" fill="#75898C"/>
<path d="M223.873 368.243C223.309 368.243 222.805 368.142 222.36 367.939C221.915 367.733 221.563 367.448 221.303 367.084C221.044 366.719 220.906 366.3 220.892 365.825H221.738C221.753 366.16 221.856 366.452 222.047 366.703C222.238 366.951 222.491 367.145 222.808 367.285C223.124 367.422 223.476 367.491 223.864 367.491C224.288 367.491 224.661 367.412 224.984 367.254C225.309 367.096 225.563 366.879 225.745 366.605C225.93 366.327 226.023 366.014 226.023 365.664C226.023 365.294 225.929 364.967 225.74 364.684C225.552 364.4 225.282 364.179 224.93 364.021C224.581 363.863 224.163 363.784 223.676 363.784H223.139V363.032H223.676C224.073 363.032 224.424 362.96 224.729 362.817C225.036 362.67 225.278 362.466 225.454 362.203C225.63 361.941 225.718 361.632 225.718 361.277C225.718 360.939 225.642 360.642 225.49 360.386C225.338 360.129 225.123 359.927 224.845 359.781C224.57 359.635 224.25 359.562 223.882 359.562C223.527 359.562 223.202 359.63 222.906 359.768C222.611 359.905 222.372 360.099 222.19 360.35C222.011 360.6 221.915 360.897 221.903 361.241H221.093C221.105 360.763 221.236 360.344 221.487 359.983C221.741 359.618 222.077 359.335 222.494 359.132C222.915 358.926 223.381 358.823 223.891 358.823C224.432 358.823 224.899 358.933 225.293 359.154C225.687 359.375 225.991 359.669 226.206 360.036C226.424 360.4 226.533 360.802 226.533 361.241C226.533 361.763 226.391 362.211 226.108 362.584C225.824 362.954 225.442 363.211 224.961 363.354V363.412C225.546 363.529 226.006 363.788 226.34 364.191C226.678 364.591 226.846 365.082 226.846 365.664C226.846 366.154 226.718 366.594 226.461 366.985C226.205 367.373 225.852 367.681 225.405 367.907C224.96 368.131 224.45 368.243 223.873 368.243Z" fill="#75898C"/>
<path d="M275.765 366.148V365.467L279.853 358.948H280.355V360.09H279.983L276.701 365.337V365.396H282.061V366.148H275.765ZM280.046 368.118V365.933V365.62V358.948H280.843V368.118H280.046Z" fill="#75898C"/>
<path d="M333.926 368.243C333.415 368.243 332.959 368.14 332.556 367.934C332.156 367.725 331.836 367.439 331.598 367.075C331.362 366.711 331.237 366.294 331.222 365.825H332.032C332.059 366.312 332.25 366.712 332.605 367.025C332.96 367.336 333.401 367.491 333.926 367.491C334.335 367.491 334.699 367.394 335.018 367.2C335.338 367.003 335.587 366.734 335.766 366.394C335.948 366.051 336.039 365.664 336.039 365.234C336.036 364.787 335.939 364.393 335.748 364.052C335.557 363.709 335.297 363.441 334.969 363.247C334.644 363.053 334.278 362.956 333.872 362.956C333.565 362.953 333.263 363.003 332.968 363.108C332.672 363.212 332.426 363.347 332.229 363.511L331.392 363.403L331.942 358.948H336.474V359.7H332.645L332.278 362.767H332.323C332.526 362.597 332.772 362.459 333.062 362.351C333.354 362.244 333.663 362.19 333.989 362.19C334.529 362.19 335.014 362.32 335.444 362.579C335.877 362.839 336.218 363.197 336.469 363.654C336.723 364.108 336.85 364.63 336.85 365.221C336.85 365.8 336.723 366.318 336.469 366.775C336.218 367.228 335.872 367.587 335.43 367.849C334.992 368.112 334.49 368.243 333.926 368.243Z" fill="#75898C"/>
<path d="M389.116 368.243C388.737 368.24 388.367 368.164 388.006 368.015C387.644 367.863 387.319 367.619 387.03 367.285C386.74 366.948 386.51 366.503 386.34 365.951C386.17 365.399 386.085 364.72 386.085 363.914C386.085 363.167 386.15 362.484 386.282 361.863C386.413 361.242 386.61 360.705 386.873 360.251C387.136 359.798 387.464 359.447 387.858 359.199C388.252 358.948 388.713 358.823 389.241 358.823C389.737 358.823 390.174 358.926 390.553 359.132C390.932 359.335 391.24 359.618 391.476 359.983C391.711 360.347 391.859 360.766 391.919 361.241H391.095C391.011 360.757 390.813 360.359 390.499 360.045C390.186 359.732 389.767 359.575 389.241 359.575C388.489 359.575 387.907 359.924 387.495 360.623C387.083 361.318 386.876 362.306 386.873 363.587H386.931C387.077 363.315 387.265 363.081 387.495 362.884C387.728 362.684 387.992 362.529 388.288 362.418C388.583 362.305 388.894 362.248 389.219 362.248C389.729 362.248 390.197 362.378 390.62 362.638C391.044 362.894 391.383 363.248 391.637 363.699C391.89 364.146 392.017 364.658 392.017 365.234C392.017 365.781 391.896 366.284 391.655 366.743C391.416 367.203 391.079 367.569 390.643 367.84C390.21 368.112 389.701 368.246 389.116 368.243ZM389.116 367.491C389.516 367.491 389.873 367.39 390.186 367.187C390.502 366.984 390.752 366.712 390.934 366.372C391.116 366.028 391.207 365.649 391.207 365.234C391.207 364.82 391.116 364.443 390.934 364.106C390.752 363.769 390.502 363.5 390.186 363.3C389.873 363.1 389.516 363 389.116 363C388.812 363 388.528 363.063 388.265 363.188C388.003 363.311 387.774 363.479 387.58 363.694C387.389 363.906 387.243 364.149 387.141 364.424C387.043 364.699 387.006 364.987 387.03 365.288C387.062 365.709 387.171 366.087 387.356 366.421C387.544 366.752 387.789 367.013 388.091 367.205C388.395 367.396 388.737 367.491 389.116 367.491Z" fill="#75898C"/>
<path d="M441.85 368.118L446.027 359.759V359.7H441.214V358.948H446.905V359.736L442.732 368.118H441.85Z" fill="#75898C"/>
<path d="M499.182 368.243C498.597 368.243 498.077 368.133 497.62 367.912C497.163 367.691 496.805 367.39 496.545 367.008C496.286 366.622 496.156 366.188 496.156 365.705C496.156 365.326 496.235 364.972 496.393 364.643C496.551 364.312 496.769 364.035 497.047 363.811C497.324 363.584 497.636 363.436 497.983 363.367V363.318C497.532 363.187 497.169 362.929 496.895 362.544C496.62 362.156 496.484 361.715 496.487 361.223C496.484 360.766 496.601 360.357 496.836 359.996C497.072 359.635 497.393 359.35 497.799 359.141C498.208 358.929 498.669 358.823 499.182 358.823C499.693 358.823 500.151 358.929 500.557 359.141C500.963 359.35 501.284 359.635 501.52 359.996C501.758 360.357 501.879 360.766 501.882 361.223C501.879 361.712 501.741 362.153 501.466 362.544C501.191 362.932 500.83 363.19 500.382 363.318V363.367C500.729 363.433 501.039 363.579 501.314 363.806C501.588 364.033 501.806 364.312 501.967 364.643C502.129 364.972 502.209 365.326 502.209 365.705C502.209 366.188 502.078 366.622 501.815 367.008C501.555 367.39 501.197 367.691 500.741 367.912C500.287 368.133 499.768 368.243 499.182 368.243ZM499.182 367.491C499.618 367.491 500 367.413 500.329 367.258C500.66 367.1 500.918 366.884 501.103 366.609C501.291 366.334 501.385 366.02 501.385 365.664C501.385 365.297 501.288 364.97 501.094 364.684C500.9 364.394 500.638 364.166 500.306 363.999C499.975 363.829 499.6 363.744 499.182 363.744C498.765 363.744 498.388 363.829 498.054 363.999C497.723 364.166 497.46 364.394 497.266 364.684C497.075 364.97 496.98 365.297 496.98 365.664C496.98 366.02 497.071 366.334 497.253 366.609C497.438 366.884 497.696 367.1 498.027 367.258C498.362 367.413 498.747 367.491 499.182 367.491ZM499.182 363.027C499.541 363.027 499.862 362.951 500.145 362.799C500.429 362.647 500.653 362.439 500.817 362.176C500.984 361.911 501.069 361.609 501.072 361.272C501.069 360.938 500.985 360.642 500.821 360.386C500.657 360.126 500.433 359.924 500.15 359.781C499.869 359.635 499.547 359.562 499.182 359.562C498.818 359.562 498.493 359.635 498.206 359.781C497.923 359.924 497.699 360.126 497.535 360.386C497.374 360.642 497.295 360.938 497.298 361.272C497.295 361.609 497.375 361.911 497.539 362.176C497.706 362.439 497.932 362.647 498.215 362.799C498.502 362.951 498.824 363.027 499.182 363.027Z" fill="#75898C"/>
<path d="M554.195 358.823C554.577 358.826 554.947 358.904 555.306 359.056C555.667 359.205 555.992 359.447 556.282 359.781C556.571 360.112 556.801 360.554 556.971 361.106C557.141 361.656 557.226 362.332 557.226 363.135C557.226 363.884 557.161 364.57 557.029 365.194C556.898 365.818 556.701 366.358 556.438 366.815C556.179 367.269 555.85 367.621 555.453 367.872C555.059 368.119 554.598 368.243 554.07 368.243C553.577 368.243 553.14 368.14 552.758 367.934C552.379 367.728 552.071 367.443 551.836 367.079C551.6 366.712 551.454 366.288 551.397 365.808H552.221C552.301 366.297 552.498 366.7 552.812 367.016C553.128 367.333 553.547 367.491 554.07 367.491C554.819 367.491 555.401 367.142 555.816 366.443C556.231 365.745 556.438 364.751 556.438 363.461H556.38C556.237 363.73 556.049 363.964 555.816 364.164C555.586 364.364 555.323 364.521 555.028 364.635C554.732 364.745 554.42 364.8 554.092 364.8C553.582 364.8 553.115 364.672 552.691 364.415C552.267 364.155 551.928 363.802 551.674 363.354C551.421 362.903 551.294 362.39 551.294 361.814C551.294 361.271 551.413 360.772 551.652 360.318C551.894 359.862 552.231 359.498 552.664 359.226C553.1 358.951 553.61 358.817 554.195 358.823ZM554.195 359.575C553.798 359.575 553.441 359.677 553.125 359.88C552.812 360.08 552.562 360.35 552.377 360.69C552.195 361.027 552.104 361.402 552.104 361.814C552.104 362.229 552.195 362.606 552.377 362.947C552.562 363.284 552.812 363.552 553.125 363.752C553.441 363.949 553.798 364.048 554.195 364.048C554.5 364.048 554.783 363.987 555.046 363.864C555.308 363.739 555.535 363.569 555.726 363.354C555.92 363.139 556.067 362.896 556.165 362.624C556.267 362.35 556.307 362.062 556.286 361.76C556.25 361.342 556.138 360.969 555.95 360.641C555.765 360.309 555.52 360.05 555.216 359.862C554.914 359.671 554.574 359.575 554.195 359.575Z" fill="#75898C"/>
<path d="M606.503 358.948V368.118H605.666V359.826H605.612L603.463 361.254V360.386L605.63 358.948H606.503ZM612.136 368.243C611.491 368.243 610.94 368.058 610.484 367.688C610.03 367.315 609.681 366.776 609.436 366.072C609.194 365.367 609.073 364.521 609.073 363.533C609.073 362.548 609.194 361.705 609.436 361.003C609.681 360.299 610.031 359.76 610.488 359.387C610.948 359.011 611.497 358.823 612.136 358.823C612.774 358.823 613.322 359.011 613.779 359.387C614.239 359.76 614.589 360.299 614.831 361.003C615.076 361.705 615.198 362.548 615.198 363.533C615.198 364.521 615.076 365.367 614.831 366.072C614.589 366.776 614.24 367.315 613.783 367.688C613.33 368.058 612.78 368.243 612.136 368.243ZM612.136 367.491C612.843 367.491 613.395 367.146 613.792 366.457C614.189 365.764 614.388 364.79 614.388 363.533C614.388 362.697 614.297 361.984 614.115 361.393C613.936 360.799 613.677 360.345 613.34 360.032C613.006 359.718 612.604 359.562 612.136 359.562C611.434 359.562 610.884 359.911 610.484 360.609C610.084 361.305 609.884 362.279 609.884 363.533C609.884 364.369 609.973 365.082 610.152 365.673C610.334 366.264 610.593 366.715 610.927 367.025C611.264 367.336 611.667 367.491 612.136 367.491Z" fill="#75898C"/>
<path d="M662.632 358.948V368.118H661.795V359.826H661.741L659.592 361.254V360.386L661.759 358.948H662.632ZM668.247 358.948V368.118H667.41V359.826H667.356L665.207 361.254V360.386L667.374 358.948H668.247Z" fill="#75898C"/>
<path d="M716.66 358.948V368.118H715.823V359.826H715.769L713.62 361.254V360.386L715.787 358.948H716.66ZM719.445 368.118V367.504L722.441 364.138C722.832 363.696 723.147 363.318 723.385 363.005C723.624 362.691 723.797 362.402 723.905 362.136C724.015 361.871 724.07 361.594 724.07 361.308C724.07 360.959 723.988 360.654 723.824 360.394C723.663 360.132 723.441 359.927 723.157 359.781C722.873 359.635 722.554 359.562 722.199 359.562C721.823 359.562 721.493 359.642 721.209 359.803C720.929 359.965 720.711 360.186 720.556 360.466C720.4 360.747 720.323 361.069 720.323 361.433H719.521C719.521 360.926 719.638 360.477 719.871 360.086C720.106 359.692 720.427 359.383 720.833 359.159C721.242 358.935 721.705 358.823 722.221 358.823C722.732 358.823 723.185 358.933 723.582 359.154C723.979 359.372 724.291 359.669 724.518 360.045C724.745 360.421 724.858 360.842 724.858 361.308C724.858 361.645 724.799 361.972 724.679 362.288C724.563 362.605 724.361 362.957 724.075 363.345C723.788 363.733 723.391 364.208 722.884 364.769L720.609 367.307V367.366H725.145V368.118H719.445Z" fill="#75898C"/>
</svg>
