<svg width="72" height="15" viewBox="0 0 72 15" fill="none" xmlns="http://www.w3.org/2000/svg">
<path d="M7.04615 10.4011L10.2959 12.3256L9.43353 8.69846L12.3047 6.25799L8.5238 5.93809L7.04615 2.52246L5.56849 5.93809L1.7876 6.25799L4.65351 8.69846L3.79636 12.3256L7.04615 10.4011Z" fill="#FB8200"/>
<path d="M21.2688 10.4011L24.5186 12.3256L23.6562 8.69846L26.5274 6.25799L22.7465 5.93809L21.2688 2.52246L19.7912 5.93809L16.0103 6.25799L18.8762 8.69846L18.019 12.3256L21.2688 10.4011Z" fill="#FB8200"/>
<path d="M35.4905 10.4011L38.7403 12.3256L37.8779 8.69846L40.749 6.25799L36.9681 5.93809L35.4905 2.52246L34.0128 5.93809L30.2319 6.25799L33.0978 8.69846L32.2407 12.3256L35.4905 10.4011Z" fill="#FB8200"/>
<path d="M49.7127 10.4011L52.9624 12.3256L52.1 8.69846L54.9712 6.25799L51.1903 5.93809L49.7127 2.52246L48.235 5.93809L44.4541 6.25799L47.32 8.69846L46.4629 12.3256L49.7127 10.4011Z" fill="#FB8200"/>
<path d="M63.9353 9.41439V4.26655L64.8345 6.49728L67.1378 6.70209L65.3919 8.30179L65.9125 10.6709L63.9353 9.41439ZM69.1939 6.00464L65.413 5.66698L63.9353 1.99707L62.4577 5.66698L58.6768 6.00464L61.5427 8.62284L60.6855 12.5142L63.9353 10.4495L67.1851 12.5142L66.3227 8.62284L69.1939 6.00464Z" fill="#FB8200"/>
</svg>
